<?xml version="1.0" encoding="UTF-8" standalone="no"?>
<!-- Created with Inkscape (http://www.inkscape.org/) -->

<svg
   width="1100"
   height="320"
   viewBox="0 0 1100 320"
   version="1.1"
   id="svg1"
   inkscape:version="1.3 (0e150ed6c4, 2023-07-21)"
   sodipodi:docname="mbin-text.svg"
   inkscape:export-filename="export/mbin_logo_white.png"
   inkscape:export-xdpi="96"
   inkscape:export-ydpi="96"
   xmlns:inkscape="http://www.inkscape.org/namespaces/inkscape"
   xmlns:sodipodi="http://sodipodi.sourceforge.net/DTD/sodipodi-0.dtd"
   xmlns:xlink="http://www.w3.org/1999/xlink"
   xmlns="http://www.w3.org/2000/svg"
   xmlns:svg="http://www.w3.org/2000/svg">
  <sodipodi:namedview
     id="namedview1"
     pagecolor="#bfbfbf"
     bordercolor="#ffffff"
     borderopacity="1"
     inkscape:showpageshadow="0"
     inkscape:pageopacity="0"
     inkscape:pagecheckerboard="1"
     inkscape:deskcolor="#d1d1d1"
     inkscape:document-units="px"
     showgrid="false"
     inkscape:zoom="1"
     inkscape:cx="556"
     inkscape:cy="146.5"
     inkscape:window-width="1855"
     inkscape:window-height="1057"
     inkscape:window-x="1137"
     inkscape:window-y="468"
     inkscape:window-maximized="1"
     inkscape:current-layer="svg1"
     showguides="true">
    <inkscape:grid
       type="axonomgrid"
       id="grid1"
       units="px"
       originx="274"
       originy="25.000006"
       spacingx="0"
       spacingy="5"
       empcolor="#3f3fff"
       empopacity="0.25098039"
       color="#3f3fff"
       opacity="0.10196078"
       empspacing="2"
       dotted="false"
       gridanglex="30"
       gridanglez="30"
       visible="false" />
  </sodipodi:namedview>
  <defs
     id="defs1">
    <inkscape:path-effect
       effect="fillet_chamfer"
       id="path-effect39"
       is_visible="true"
       lpeversion="1"
       nodesatellites_param="F,0,0,1,0,0,0,1 @ F,0,0,1,0,0,0,1 @ F,0,0,1,0,0,0,1 @ F,0,0,1,0,0,0,1 @ F,0,0,1,0,0,0,1 @ F,0,0,1,0,0,0,1 @ F,0,0,1,0,0,0,1 @ F,0,0,1,0,0,0,1 | F,0,0,1,0,0,0,1 @ F,0,1,1,0,4.3305888,0,1 @ F,0,0,1,0,0,0,1 @ F,0,1,1,0,4.3305888,0,1"
       radius="0"
       unit="px"
       method="auto"
       mode="F"
       chamfer_steps="1"
       flexible="false"
       use_knot_distance="true"
       apply_no_radius="true"
       apply_with_radius="true"
       only_selected="true"
       hide_knots="false" />
    <inkscape:path-effect
       effect="fillet_chamfer"
       id="path-effect31"
       is_visible="true"
       lpeversion="1"
       nodesatellites_param="F,0,0,1,0,8.6602542,0,1 @ F,0,1,1,0,8.660254,0,1 @ F,0,0,1,0,8.6602534,0,1"
       radius="8"
       unit="px"
       method="auto"
       mode="F"
       chamfer_steps="1"
       flexible="false"
       use_knot_distance="true"
       apply_no_radius="true"
       apply_with_radius="true"
       only_selected="true"
       hide_knots="false" />
    <inkscape:path-effect
       effect="fillet_chamfer"
       id="path-effect29"
       is_visible="true"
       lpeversion="1"
       nodesatellites_param="F,0,0,1,0,2,0,1 @ F,0,0,1,0,2,0,1 @ F,0,0,1,0,2,0,1 @ F,0,0,1,0,2,0,1"
       radius="2"
       unit="px"
       method="auto"
       mode="F"
       chamfer_steps="1"
       flexible="false"
       use_knot_distance="true"
       apply_no_radius="true"
       apply_with_radius="true"
       only_selected="false"
       hide_knots="false" />
    <inkscape:path-effect
       effect="fillet_chamfer"
       id="path-effect28"
       is_visible="true"
       lpeversion="1"
       nodesatellites_param="F,0,0,1,0,2,0,1 @ F,0,0,1,0,2,0,1 @ F,0,0,1,0,2,0,1 @ F,0,0,1,0,2,0,1"
       radius="2"
       unit="px"
       method="auto"
       mode="F"
       chamfer_steps="1"
       flexible="false"
       use_knot_distance="true"
       apply_no_radius="true"
       apply_with_radius="true"
       only_selected="false"
       hide_knots="false" />
    <inkscape:path-effect
       effect="fillet_chamfer"
       id="path-effect27"
       is_visible="true"
       lpeversion="1"
       nodesatellites_param="F,0,1,1,0,8.660254,0,1 @ F,0,1,1,0,8.660254,0,1 @ F,0,0,1,0,0,0,1 @ F,0,0,1,0,0,0,1 @ F,0,0,1,0,0,0,1 @ F,0,0,1,0,0,0,1 @ F,0,0,1,0,0,0,1 @ F,0,0,1,0,0,0,1 @ F,0,0,1,0,0,0,1"
       radius="5"
       unit="px"
       method="auto"
       mode="F"
       chamfer_steps="1"
       flexible="false"
       use_knot_distance="true"
       apply_no_radius="true"
       apply_with_radius="true"
       only_selected="true"
       hide_knots="false" />
    <inkscape:path-effect
       effect="fillet_chamfer"
       id="path-effect25"
       is_visible="true"
       lpeversion="1"
       nodesatellites_param="F,0,0,1,0,8.6602542,0,1 @ F,0,1,1,0,8.660254,0,1 @ F,0,0,1,0,8.6602534,0,1"
       radius="8"
       unit="px"
       method="auto"
       mode="F"
       chamfer_steps="1"
       flexible="false"
       use_knot_distance="true"
       apply_no_radius="true"
       apply_with_radius="true"
       only_selected="true"
       hide_knots="false" />
    <inkscape:path-effect
       effect="fillet_chamfer"
       id="path-effect21"
       is_visible="true"
       lpeversion="1"
       nodesatellites_param="F,0,1,1,0,8.660254,0,1 @ F,0,1,1,0,8.660254,0,1 @ F,0,0,1,0,0,0,1 @ F,0,0,1,0,0,0,1 @ F,0,0,1,0,0,0,1 @ F,0,0,1,0,0,0,1 @ F,0,0,1,0,0,0,1 @ F,0,0,1,0,0,0,1 @ F,0,0,1,0,0,0,1"
       radius="5"
       unit="px"
       method="auto"
       mode="F"
       chamfer_steps="1"
       flexible="false"
       use_knot_distance="true"
       apply_no_radius="true"
       apply_with_radius="true"
       only_selected="true"
       hide_knots="false" />
    <inkscape:path-effect
       effect="fillet_chamfer"
       id="path-effect20"
       is_visible="true"
       lpeversion="1"
       nodesatellites_param="F,0,0,1,0,8.6602542,0,1 @ F,0,1,1,0,8.660254,0,1 @ F,0,0,1,0,8.6602534,0,1"
       radius="8"
       unit="px"
       method="auto"
       mode="F"
       chamfer_steps="1"
       flexible="false"
       use_knot_distance="true"
       apply_no_radius="true"
       apply_with_radius="true"
       only_selected="true"
       hide_knots="false" />
    <linearGradient
       inkscape:collect="always"
       xlink:href="#linearGradient8"
       id="linearGradient9"
       x1="105.88936"
       y1="-7.966506"
       x2="153.52075"
       y2="74.533493"
       gradientUnits="userSpaceOnUse" />
    <linearGradient
       id="linearGradient8"
       inkscape:collect="always">
      <stop
         style="stop-color:#2de2e6;stop-opacity:1;"
         offset="0"
         id="stop8" />
      <stop
         style="stop-color:#3399ff;stop-opacity:1;"
         offset="1"
         id="stop11" />
    </linearGradient>
    <inkscape:path-effect
       effect="fillet_chamfer"
       id="path-effect20-6"
       is_visible="true"
       lpeversion="1"
       nodesatellites_param="F,0,0,1,0,8.6602542,0,1 @ F,0,1,1,0,8.660254,0,1 @ F,0,0,1,0,8.6602534,0,1"
       radius="8"
       unit="px"
       method="auto"
       mode="F"
       chamfer_steps="1"
       flexible="false"
       use_knot_distance="true"
       apply_no_radius="true"
       apply_with_radius="true"
       only_selected="true"
       hide_knots="false" />
    <inkscape:path-effect
       effect="fillet_chamfer"
       id="path-effect39-7"
       is_visible="true"
       lpeversion="1"
       nodesatellites_param="F,0,0,1,0,0,0,1 @ F,0,0,1,0,0,0,1 @ F,0,0,1,0,0,0,1 @ F,0,0,1,0,0,0,1 @ F,0,0,1,0,0,0,1 @ F,0,0,1,0,0,0,1 @ F,0,0,1,0,0,0,1 @ F,0,0,1,0,0,0,1 | F,0,0,1,0,0,0,1 @ F,0,1,1,0,4.3305888,0,1 @ F,0,0,1,0,0,0,1 @ F,0,1,1,0,4.3305888,0,1"
       radius="0"
       unit="px"
       method="auto"
       mode="F"
       chamfer_steps="1"
       flexible="false"
       use_knot_distance="true"
       apply_no_radius="true"
       apply_with_radius="true"
       only_selected="true"
       hide_knots="false" />
    <linearGradient
       inkscape:collect="always"
       xlink:href="#linearGradient6"
       id="linearGradient7"
       x1="97.229103"
       y1="82.033493"
       x2="97.229103"
       y2="107.03349"
       gradientUnits="userSpaceOnUse" />
    <linearGradient
       id="linearGradient6"
       inkscape:collect="always">
      <stop
         style="stop-color:#f623ac;stop-opacity:1;"
         offset="0"
         id="stop6" />
      <stop
         style="stop-color:#f706cf;stop-opacity:1;"
         offset="1"
         id="stop7" />
    </linearGradient>
    <inkscape:path-effect
       effect="fillet_chamfer"
       id="path-effect21-5"
       is_visible="true"
       lpeversion="1"
       nodesatellites_param="F,0,1,1,0,8.660254,0,1 @ F,0,1,1,0,8.660254,0,1 @ F,0,0,1,0,0,0,1 @ F,0,0,1,0,0,0,1 @ F,0,0,1,0,0,0,1 @ F,0,0,1,0,0,0,1 @ F,0,0,1,0,0,0,1 @ F,0,0,1,0,0,0,1 @ F,0,0,1,0,0,0,1"
       radius="5"
       unit="px"
       method="auto"
       mode="F"
       chamfer_steps="1"
       flexible="false"
       use_knot_distance="true"
       apply_no_radius="true"
       apply_with_radius="true"
       only_selected="true"
       hide_knots="false" />
  </defs>
  <rect
     style="display:none;opacity:1;fill:#28134a;fill-opacity:1;stroke:none;stroke-width:8.04063;stroke-linecap:round;stroke-linejoin:round;stroke-dasharray:none;stroke-opacity:1"
     id="rect35"
     width="1100"
     height="320"
     x="0"
     y="0"
     inkscape:label="bg color" />
  <g
     id="g1"
     inkscape:label="all"
     transform="translate(31.439998,29.999997)">
    <g
       inkscape:label="logo"
       inkscape:groupmode="layer"
       id="layer1"
       style="display:inline;fill:none"
       transform="matrix(2.0000001,0,0,2.0000001,-58.669828,15.933005)">
      <path
         style="display:inline;opacity:1;fill:url(#linearGradient9);fill-opacity:1;stroke:none;stroke-width:1;stroke-linecap:round;stroke-linejoin:round;stroke-dasharray:none;stroke-opacity:1"
         d="M 92.898977,-25.466506 23.616945,94.53349 a 4.9999999,4.9999999 60 0 0 4.330127,7.5 H 166.51114 a 4.9999996,4.9999996 120 0 0 4.33012,-7.499999 L 101.55923,-25.466506 a 5.0000002,5.0000002 180 0 0 -8.660253,0 z"
         id="path5"
         sodipodi:nodetypes="cccc"
         inkscape:label="bg triangle"
         inkscape:path-effect="#path-effect20-6"
         inkscape:original-d="M 97.229104,-32.966506 19.286818,102.03349 H 175.17139 Z"
         transform="translate(6.3878407,20.000004)" />
      <path
         id="path1"
         style="display:inline;opacity:1;fill:#241734;fill-opacity:1;stroke:none;stroke-width:1;stroke-linecap:round;stroke-linejoin:round;stroke-dasharray:none;stroke-opacity:1"
         inkscape:label="negative m"
         d="M 103.61607,27.033498 60.315284,102.0335 H 77.635596 L 90.625831,79.533498 103.61607,102.0335 116.60825,79.533498 129.59849,102.0335 h 17.32031 z m 0,15 10.82666,18.74973 a 7.4997612,7.4997612 90 0 1 0,7.50054 l -10.82666,18.74973 -10.824962,-18.74959 a 7.5008819,7.5008819 90 0 1 0,-7.50082 z"
         inkscape:path-effect="#path-effect39-7"
         inkscape:original-d="M 103.61607,27.033498 60.315284,102.0335 H 77.635596 L 90.625831,79.533498 103.61607,102.0335 116.60825,79.533498 129.59849,102.0335 h 17.32031 z m 0,15 12.99218,22.5 -12.99218,22.5 -12.990239,-22.5 z" />
      <path
         style="display:inline;opacity:1;fill:url(#linearGradient7);fill-opacity:1;stroke:none;stroke-width:1;stroke-linecap:round;stroke-linejoin:round;stroke-dasharray:none;stroke-opacity:1"
         d="M 27.947072,102.03349 H 166.51114 a 5.0000006,5.0000006 120 0 0 4.33012,-7.5 l -7.21687,-12.499996 h -40.41452 l -12.99038,-22.5 -12.990386,22.5 -12.990381,-22.5 -12.990381,22.5 H 30.833821 L 23.616945,94.53349 a 5,5 60 0 0 4.330127,7.5 z"
         id="path6"
         inkscape:label="ground bg"
         inkscape:path-effect="#path-effect21-5"
         inkscape:original-d="M 19.286818,102.03349 H 175.17139 l -11.547,-19.999996 h -40.41452 l -12.99038,-22.5 -12.990386,22.5 -12.990381,-22.5 -12.990381,22.5 H 30.833821 Z"
         transform="translate(6.3878407,20.000004)" />
    </g>
    <g
       inkscape:groupmode="layer"
       id="layer3"
       inkscape:label="mbin text"
       style="display:inline;fill:none"
       transform="matrix(2.0000001,0,0,2.0000001,178.15544,-28.311455)">
      <text
         xml:space="preserve"
         style="font-style:normal;font-variant:normal;font-weight:normal;font-stretch:normal;font-size:135px;line-height:1.25;font-family:Rubik;-inkscape-font-specification:Rubik;letter-spacing:7.42857px;display:none;fill:#ffffff;stroke-width:0.464286;stroke-linecap:round;stroke-linejoin:round"
         x="65.781387"
         y="124.15573"
         id="text1"
         inkscape:label="text object"><desc
           id="desc1">font used: Rubik&#10;font src: https://www.fontsquirrel.com/fonts/rubik</desc><tspan
           sodipodi:role="line"
           id="tspan1"
           style="font-style:normal;font-variant:normal;font-weight:bold;font-stretch:normal;font-size:135px;font-family:Rubik;-inkscape-font-specification:'Rubik Bold';letter-spacing:7.42857px;stroke-width:0.464286"
           x="0"
           y="0">MBIN</tspan></text>
      <path
         style="font-weight:bold;font-size:135px;line-height:1.25;font-family:Rubik;-inkscape-font-specification:'Rubik Bold';letter-spacing:7.42857px;fill:#ffffff;stroke-width:0.464286;stroke-linecap:round;stroke-linejoin:round"
         d="m 117.89139,101.47573 q -2.025,0 -3.24,-1.08 -1.08,-1.214999 -1.755,-2.294999 l -12.69,-22.275 v 44.684999 q 0,1.485 -1.080003,2.565 -1.08,1.08 -2.565,1.08 h -17.685 q -1.485,0 -2.565,-1.08 -1.08,-1.08 -1.08,-2.565 V 33.300731 q 0,-1.485 1.08,-2.565 1.08,-1.08 2.565,-1.08 h 15.66 q 2.7,0 4.05,1.485 1.35,1.485 1.755003,2.16 l 21.87,37.395 21.87,-37.395 q 0.405,-0.675 1.755,-2.16 1.35,-1.485 4.05,-1.485 h 15.66 q 1.485,0 2.565,1.08 1.08,1.08 1.08,2.565 v 87.209999 q 0,1.485 -1.08,2.565 -1.08,1.08 -2.565,1.08 h -17.685 q -1.485,0 -2.565,-1.08 -1.08,-1.08 -1.08,-2.565 V 75.825731 l -12.69,22.275 q -0.675,1.08 -1.89,2.294999 -1.08,1.08 -3.105,1.08 z m 81.27363,22.68 q -1.485,0 -2.565,-1.08 -1.08,-1.08 -1.08,-2.565 V 33.300731 q 0,-1.485 1.08,-2.565 1.08,-1.08 2.565,-1.08 h 43.47 q 9.045,0 15.255,2.565 6.21,2.43 9.855,6.48 3.78,3.915 5.4,9.045 1.62,4.995 1.62,9.99 0,3.915 -0.945,6.885 -0.81,2.835 -2.025,4.995 -1.215,2.025 -2.565,3.375 -1.215,1.215 -2.025,1.89 5.265,3.645 7.29,8.505 2.16,4.725 2.16,11.475 0,5.534999 -1.62,10.799999 -1.62,5.265 -5.4,9.45 -3.645,4.05 -9.585,6.615 -5.94,2.43 -14.58,2.43 z m 50.49,-65.879999 q 0,-3.51 -2.16,-5.535 -2.025,-2.16 -6.075,-2.16 h -20.925 v 15.39 h 20.925 q 4.05,0 6.075,-2.025 2.16,-2.16 2.16,-5.67 z m -29.16,44.954999 h 22.275 q 4.05,0 6.48,-2.295 2.43,-2.429999 2.43,-5.939999 0,-3.51 -2.43,-5.805 -2.43,-2.43 -6.48,-2.43 h -22.275 z m 82.21856,20.925 q -1.485,0 -2.565,-1.08 -1.08,-1.08 -1.08,-2.565 V 33.300731 q 0,-1.485 1.08,-2.565 1.08,-1.08 2.565,-1.08 h 17.685 q 1.485,0 2.565,1.08 1.08,1.08 1.08,2.565 v 87.209999 q 0,1.485 -1.08,2.565 -1.08,1.08 -2.565,1.08 z m 109.08368,0 q -2.295,0 -3.78,-1.215 -1.35,-1.215 -1.755,-1.89 l -30.915,-46.169999 v 45.629999 q 0,1.485 -1.08,2.565 -1.08,1.08 -2.565,1.08 h -17.685 q -1.485,0 -2.565,-1.08 -1.08,-1.08 -1.08,-2.565 V 33.300731 q 0,-1.485 1.08,-2.565 1.08,-1.08 2.565,-1.08 h 14.04 q 2.295,0 3.645,1.215 1.485,1.215 1.89,1.89 l 30.915,46.17 v -45.63 q 0,-1.485 1.08,-2.565 1.08,-1.08 2.565,-1.08 h 17.685 q 1.485,0 2.565,1.08 1.08,1.08 1.08,2.565 v 87.209999 q 0,1.485 -1.08,2.565 -1.08,1.08 -2.565,1.08 z"
         id="text2"
         inkscape:label="text outline"
         aria-label="MBIN">
        <desc
           id="desc2">font used: Rubik&#10;font src: https://www.fontsquirrel.com/fonts/rubik</desc>
      </path>
    </g>
  </g>
</svg>
