<?xml version="1.0" encoding="UTF-8" standalone="no"?>
<!-- Created with Inkscape (http://www.inkscape.org/) -->

<svg
   width="1100"
   height="320"
   viewBox="0 0 1100 320"
   version="1.1"
   id="svg1"
   inkscape:version="1.3.2 (1:1.3.2+202311252150+091e20ef0f)"
   sodipodi:docname="mbin-text.svg"
   inkscape:export-filename="../../../public/mbin_logo_white.png"
   inkscape:export-xdpi="96"
   inkscape:export-ydpi="96"
   xmlns:inkscape="http://www.inkscape.org/namespaces/inkscape"
   xmlns:sodipodi="http://sodipodi.sourceforge.net/DTD/sodipodi-0.dtd"
   xmlns:xlink="http://www.w3.org/1999/xlink"
   xmlns="http://www.w3.org/2000/svg"
   xmlns:svg="http://www.w3.org/2000/svg">
  <sodipodi:namedview
     id="namedview1"
     pagecolor="#bfbfbf"
     bordercolor="#ffffff"
     borderopacity="1"
     inkscape:showpageshadow="0"
     inkscape:pageopacity="0"
     inkscape:pagecheckerboard="1"
     inkscape:deskcolor="#d1d1d1"
     inkscape:document-units="px"
     showgrid="false"
     inkscape:zoom="1.4142136"
     inkscape:cx="1006.5665"
     inkscape:cy="150.26019"
     inkscape:window-width="1920"
     inkscape:window-height="1048"
     inkscape:window-x="3840"
     inkscape:window-y="0"
     inkscape:window-maximized="1"
     inkscape:current-layer="svg1"
     showguides="true">
    <inkscape:grid
       type="axonomgrid"
       id="grid1"
       units="px"
       originx="274"
       originy="25.000006"
       spacingx="0"
       spacingy="5"
       empcolor="#3f3fff"
       empopacity="0.25098039"
       color="#3f3fff"
       opacity="0.10196078"
       empspacing="2"
       dotted="false"
       gridanglex="30"
       gridanglez="30"
       visible="false" />
    <sodipodi:guide
       position="-56.499999,5.0000083"
       orientation="0,-1"
       id="guide4"
       inkscape:locked="false" />
    <sodipodi:guide
       position="293.99999,160"
       orientation="0,1"
       id="guide5"
       inkscape:locked="false"
       inkscape:label=""
       inkscape:color="rgb(0,134,229)" />
  </sodipodi:namedview>
  <defs
     id="defs1">
    <rect
       x="24.411255"
       y="279.42432"
       width="212.46252"
       height="78.889648"
       id="rect1" />
    <inkscape:path-effect
       effect="fillet_chamfer"
       id="path-effect39"
       is_visible="true"
       lpeversion="1"
       nodesatellites_param="F,0,0,1,0,0,0,1 @ F,0,0,1,0,0,0,1 @ F,0,0,1,0,0,0,1 @ F,0,0,1,0,0,0,1 @ F,0,0,1,0,0,0,1 @ F,0,0,1,0,0,0,1 @ F,0,0,1,0,0,0,1 @ F,0,0,1,0,0,0,1 | F,0,0,1,0,0,0,1 @ F,0,1,1,0,4.3305888,0,1 @ F,0,0,1,0,0,0,1 @ F,0,1,1,0,4.3305888,0,1"
       radius="0"
       unit="px"
       method="auto"
       mode="F"
       chamfer_steps="1"
       flexible="false"
       use_knot_distance="true"
       apply_no_radius="true"
       apply_with_radius="true"
       only_selected="true"
       hide_knots="false" />
    <inkscape:path-effect
       effect="fillet_chamfer"
       id="path-effect31"
       is_visible="true"
       lpeversion="1"
       nodesatellites_param="F,0,0,1,0,8.6602542,0,1 @ F,0,1,1,0,8.660254,0,1 @ F,0,0,1,0,8.6602534,0,1"
       radius="8"
       unit="px"
       method="auto"
       mode="F"
       chamfer_steps="1"
       flexible="false"
       use_knot_distance="true"
       apply_no_radius="true"
       apply_with_radius="true"
       only_selected="true"
       hide_knots="false" />
    <inkscape:path-effect
       effect="fillet_chamfer"
       id="path-effect29"
       is_visible="true"
       lpeversion="1"
       nodesatellites_param="F,0,0,1,0,2,0,1 @ F,0,0,1,0,2,0,1 @ F,0,0,1,0,2,0,1 @ F,0,0,1,0,2,0,1"
       radius="2"
       unit="px"
       method="auto"
       mode="F"
       chamfer_steps="1"
       flexible="false"
       use_knot_distance="true"
       apply_no_radius="true"
       apply_with_radius="true"
       only_selected="false"
       hide_knots="false" />
    <inkscape:path-effect
       effect="fillet_chamfer"
       id="path-effect28"
       is_visible="true"
       lpeversion="1"
       nodesatellites_param="F,0,0,1,0,2,0,1 @ F,0,0,1,0,2,0,1 @ F,0,0,1,0,2,0,1 @ F,0,0,1,0,2,0,1"
       radius="2"
       unit="px"
       method="auto"
       mode="F"
       chamfer_steps="1"
       flexible="false"
       use_knot_distance="true"
       apply_no_radius="true"
       apply_with_radius="true"
       only_selected="false"
       hide_knots="false" />
    <inkscape:path-effect
       effect="fillet_chamfer"
       id="path-effect27"
       is_visible="true"
       lpeversion="1"
       nodesatellites_param="F,0,1,1,0,8.660254,0,1 @ F,0,1,1,0,8.660254,0,1 @ F,0,0,1,0,0,0,1 @ F,0,0,1,0,0,0,1 @ F,0,0,1,0,0,0,1 @ F,0,0,1,0,0,0,1 @ F,0,0,1,0,0,0,1 @ F,0,0,1,0,0,0,1 @ F,0,0,1,0,0,0,1"
       radius="5"
       unit="px"
       method="auto"
       mode="F"
       chamfer_steps="1"
       flexible="false"
       use_knot_distance="true"
       apply_no_radius="true"
       apply_with_radius="true"
       only_selected="true"
       hide_knots="false" />
    <inkscape:path-effect
       effect="fillet_chamfer"
       id="path-effect25"
       is_visible="true"
       lpeversion="1"
       nodesatellites_param="F,0,0,1,0,8.6602542,0,1 @ F,0,1,1,0,8.660254,0,1 @ F,0,0,1,0,8.6602534,0,1"
       radius="8"
       unit="px"
       method="auto"
       mode="F"
       chamfer_steps="1"
       flexible="false"
       use_knot_distance="true"
       apply_no_radius="true"
       apply_with_radius="true"
       only_selected="true"
       hide_knots="false" />
    <inkscape:path-effect
       effect="fillet_chamfer"
       id="path-effect21"
       is_visible="true"
       lpeversion="1"
       nodesatellites_param="F,0,1,1,0,8.660254,0,1 @ F,0,1,1,0,8.660254,0,1 @ F,0,0,1,0,0,0,1 @ F,0,0,1,0,0,0,1 @ F,0,0,1,0,0,0,1 @ F,0,0,1,0,0,0,1 @ F,0,0,1,0,0,0,1 @ F,0,0,1,0,0,0,1 @ F,0,0,1,0,0,0,1"
       radius="5"
       unit="px"
       method="auto"
       mode="F"
       chamfer_steps="1"
       flexible="false"
       use_knot_distance="true"
       apply_no_radius="true"
       apply_with_radius="true"
       only_selected="true"
       hide_knots="false" />
    <inkscape:path-effect
       effect="fillet_chamfer"
       id="path-effect20"
       is_visible="true"
       lpeversion="1"
       nodesatellites_param="F,0,0,1,0,8.6602542,0,1 @ F,0,1,1,0,8.660254,0,1 @ F,0,0,1,0,8.6602534,0,1"
       radius="8"
       unit="px"
       method="auto"
       mode="F"
       chamfer_steps="1"
       flexible="false"
       use_knot_distance="true"
       apply_no_radius="true"
       apply_with_radius="true"
       only_selected="true"
       hide_knots="false" />
    <linearGradient
       inkscape:collect="always"
       xlink:href="#linearGradient8"
       id="linearGradient9"
       x1="105.88936"
       y1="-7.966506"
       x2="153.52075"
       y2="74.533493"
       gradientUnits="userSpaceOnUse" />
    <linearGradient
       id="linearGradient8"
       inkscape:collect="always">
      <stop
         style="stop-color:#2de2e6;stop-opacity:1;"
         offset="0"
         id="stop8" />
      <stop
         style="stop-color:#3399ff;stop-opacity:1;"
         offset="1"
         id="stop11" />
    </linearGradient>
    <inkscape:path-effect
       effect="fillet_chamfer"
       id="path-effect20-6"
       is_visible="true"
       lpeversion="1"
       nodesatellites_param="F,0,0,1,0,8.6602542,0,1 @ F,0,1,1,0,8.660254,0,1 @ F,0,0,1,0,8.6602534,0,1"
       radius="8"
       unit="px"
       method="auto"
       mode="F"
       chamfer_steps="1"
       flexible="false"
       use_knot_distance="true"
       apply_no_radius="true"
       apply_with_radius="true"
       only_selected="true"
       hide_knots="false" />
    <inkscape:path-effect
       effect="fillet_chamfer"
       id="path-effect39-7"
       is_visible="true"
       lpeversion="1"
       nodesatellites_param="F,0,0,1,0,0,0,1 @ F,0,0,1,0,0,0,1 @ F,0,0,1,0,0,0,1 @ F,0,0,1,0,0,0,1 @ F,0,0,1,0,0,0,1 @ F,0,0,1,0,0,0,1 @ F,0,0,1,0,0,0,1 @ F,0,0,1,0,0,0,1 | F,0,0,1,0,0,0,1 @ F,0,1,1,0,4.3305888,0,1 @ F,0,0,1,0,0,0,1 @ F,0,1,1,0,4.3305888,0,1"
       radius="0"
       unit="px"
       method="auto"
       mode="F"
       chamfer_steps="1"
       flexible="false"
       use_knot_distance="true"
       apply_no_radius="true"
       apply_with_radius="true"
       only_selected="true"
       hide_knots="false" />
    <linearGradient
       inkscape:collect="always"
       xlink:href="#linearGradient6"
       id="linearGradient7"
       x1="97.229103"
       y1="82.033493"
       x2="97.229103"
       y2="107.03349"
       gradientUnits="userSpaceOnUse" />
    <linearGradient
       id="linearGradient6"
       inkscape:collect="always">
      <stop
         style="stop-color:#f623ac;stop-opacity:1;"
         offset="0"
         id="stop6" />
      <stop
         style="stop-color:#f706cf;stop-opacity:1;"
         offset="1"
         id="stop7" />
    </linearGradient>
    <inkscape:path-effect
       effect="fillet_chamfer"
       id="path-effect21-5"
       is_visible="true"
       lpeversion="1"
       nodesatellites_param="F,0,1,1,0,8.660254,0,1 @ F,0,1,1,0,8.660254,0,1 @ F,0,0,1,0,0,0,1 @ F,0,0,1,0,0,0,1 @ F,0,0,1,0,0,0,1 @ F,0,0,1,0,0,0,1 @ F,0,0,1,0,0,0,1 @ F,0,0,1,0,0,0,1 @ F,0,0,1,0,0,0,1"
       radius="5"
       unit="px"
       method="auto"
       mode="F"
       chamfer_steps="1"
       flexible="false"
       use_knot_distance="true"
       apply_no_radius="true"
       apply_with_radius="true"
       only_selected="true"
       hide_knots="false" />
  </defs>
  <rect
     style="display:none;opacity:1;fill:#29144a;fill-opacity:1;stroke:none;stroke-width:4.39823;stroke-linecap:round;stroke-linejoin:round;stroke-dasharray:none;stroke-opacity:1"
     id="rect35"
     width="323.65826"
     height="325.41187"
     x="0"
     y="-2.7059329"
     inkscape:label="bg color" />
  <g
     inkscape:label="logo"
     inkscape:groupmode="layer"
     id="layer1"
     style="display:inline;fill:none"
     transform="matrix(2.2967348,0,0,2.1578655,-55.969882,36.357827)">
    <path
       style="display:inline;opacity:1;fill:url(#linearGradient9);fill-opacity:1;stroke:none;stroke-width:1;stroke-linecap:round;stroke-linejoin:round;stroke-dasharray:none;stroke-opacity:1"
       d="M 92.898977,-25.466506 23.616945,94.53349 a 4.9999999,4.9999999 60 0 0 4.330127,7.5 H 166.51114 a 4.9999996,4.9999996 120 0 0 4.33012,-7.499999 L 101.55923,-25.466506 a 5.0000002,5.0000002 180 0 0 -8.660253,0 z"
       id="path5"
       sodipodi:nodetypes="cccc"
       inkscape:label="bg triangle"
       inkscape:path-effect="#path-effect20-6"
       inkscape:original-d="M 97.229104,-32.966506 19.286818,102.03349 H 175.17139 Z"
       transform="translate(5.8501312,19.942587)" />
    <path
       id="path1"
       style="display:inline;opacity:1;fill:#241734;fill-opacity:1;stroke:none;stroke-width:1;stroke-linecap:round;stroke-linejoin:round;stroke-dasharray:none;stroke-opacity:1"
       inkscape:label="negative m"
       d="M 103.61607,27.033498 60.315284,102.0335 H 77.635596 L 90.625831,79.533498 103.61607,102.0335 116.60825,79.533498 129.59849,102.0335 h 17.32031 z m 0,15 10.82666,18.74973 a 7.4997612,7.4997612 90 0 1 0,7.50054 l -10.82666,18.74973 -10.824962,-18.74959 a 7.5008819,7.5008819 90 0 1 0,-7.50082 z"
       inkscape:path-effect="#path-effect39-7"
       inkscape:original-d="M 103.61607,27.033498 60.315284,102.0335 H 77.635596 L 90.625831,79.533498 103.61607,102.0335 116.60825,79.533498 129.59849,102.0335 h 17.32031 z m 0,15 12.99218,22.5 -12.99218,22.5 -12.990239,-22.5 z"
       transform="translate(-0.5188027,0.07359983)" />
    <path
       style="display:inline;opacity:1;fill:url(#linearGradient7);fill-opacity:1;stroke:none;stroke-width:1;stroke-linecap:round;stroke-linejoin:round;stroke-dasharray:none;stroke-opacity:1"
       d="M 27.947072,102.03349 H 166.51114 a 5.0000006,5.0000006 120 0 0 4.33012,-7.5 l -7.21687,-12.499996 h -40.41452 l -12.99038,-22.5 -12.990386,22.5 -12.990381,-22.5 -12.990381,22.5 H 30.833821 L 23.616945,94.53349 a 5,5 60 0 0 4.330127,7.5 z"
       id="path6"
       inkscape:label="ground bg"
       inkscape:path-effect="#path-effect21-5"
       inkscape:original-d="M 19.286818,102.03349 H 175.17139 l -11.547,-19.999996 h -40.41452 l -12.99038,-22.5 -12.990386,22.5 -12.990381,-22.5 -12.990381,22.5 H 30.833821 Z"
       transform="matrix(1.000914,0,0,1.0020941,5.7590716,19.787291)" />
  </g>
  <path
     style="font-size:40px;line-height:1.25;font-family:SEGEK;-inkscape-font-specification:'SEGEK, Normal';white-space:pre;fill:#ffffff;stroke-width:6.26418"
     d="m 1020.9878,77.009527 v 0 q 0,-2.485979 1.686,-4.101898 1.686,-1.740204 3.9741,-1.740204 h 33.8394 q 2.4085,0 3.974,1.740204 1.686,1.615919 1.686,4.101898 V 243.32295 q 0,2.36175 -1.686,4.10196 -1.5655,1.74014 -3.974,1.74014 h -36.4888 q -2.7698,0 -4.5761,-2.48594 L 944.27711,135.55486 v 107.76809 q 0,2.36175 -1.68597,4.10196 -1.6859,1.74014 -3.97401,1.74014 h -33.83942 q -2.4085,0 -4.09445,-1.74014 -1.56554,-1.74021 -1.56554,-4.10196 V 77.009527 q 0,-2.485979 1.56554,-4.101898 1.68595,-1.740204 4.09445,-1.740204 h 36.48879 q 2.76978,0 4.57617,2.486035 l 75.14523,111.12425 z"
     id="path4"
     inkscape:label="N" />
  <path
     style="font-size:40px;line-height:1.25;font-family:SEGEK;-inkscape-font-specification:'SEGEK, Normal';white-space:pre;fill:#ffffff;stroke-width:6.26418"
     d="m 816.21649,243.12415 v 0 q 0,2.36175 1.68595,4.10196 1.68595,1.61586 3.97401,1.61586 h 33.83944 q 2.28809,0 3.97404,-1.61586 1.68595,-1.74021 1.68595,-4.10196 V 76.810727 q 0,-2.485977 -1.68595,-4.101896 -1.68595,-1.740206 -3.97404,-1.740206 h -33.83944 q -2.28806,0 -3.97401,1.740206 -1.68595,1.615919 -1.68595,4.101896 z"
     id="path3"
     inkscape:label="I" />
  <path
     style="font-size:40px;line-height:1.25;font-family:SEGEK;-inkscape-font-specification:'SEGEK, Normal';white-space:pre;fill:#ffffff;stroke-width:6.26418"
     d="m 778.10653,178.58063 v 0 q 2.64935,7.95522 2.64935,16.65616 0,8.82531 -2.64935,16.7805 -3.49233,10.81412 -10.71783,19.1422 -7.2255,8.20385 -17.22078,12.9272 -9.87484,4.72342 -21.31522,4.72342 h -85.74263 q -2.28809,0 -3.97404,-1.61586 -1.56551,-1.74021 -1.56551,-4.10196 V 76.654583 q 0,-2.361693 1.56551,-3.977611 1.68595,-1.740206 3.97404,-1.740206 h 77.55373 q 11.56079,0 21.55608,4.723414 9.99528,4.723413 17.22077,13.051489 7.2255,8.20379 10.71784,19.017911 2.64934,8.07948 2.64934,17.02907 0,8.94963 -2.64934,17.02916 -2.4085,7.458 -6.62339,13.67298 10.1157,9.44683 14.57143,23.11984 z m -95.49706,-70.85105 v 0 34.05823 h 38.05433 q 6.86421,0 11.68123,-4.97198 4.817,-4.97201 4.817,-12.05718 0,-7.08508 -4.817,-12.05709 -4.81702,-4.97198 -11.68123,-4.97198 z m 46.24323,104.28771 v 0 q 6.74379,0 11.44038,-4.84769 4.69656,-4.97198 4.69656,-11.93281 0,-6.8365 -4.69656,-11.68415 -4.69659,-4.97201 -11.44038,-4.97201 h -54.19128 l 7.94805,6.21499 v 27.22167 z"
     id="path2"
     inkscape:label="B" />
  <path
     style="font-size:40px;line-height:1.25;font-family:SEGEK;-inkscape-font-specification:'SEGEK, Normal';white-space:pre;fill:#ffffff;stroke-width:6.26418"
     d="m 550.52597,74.730632 v 0 q 1.80638,-3.604724 5.17828,-3.604724 h 35.76625 q 2.28806,0 3.97401,1.740205 1.68595,1.61592 1.68595,4.101897 v 166.31342 q 0,2.36175 -1.68595,4.10196 -1.68595,1.74015 -3.97401,1.74015 h -33.83945 q -2.4085,0 -4.09445,-1.74015 -1.56553,-1.74021 -1.56553,-4.10196 v -77.9361 l -32.99646,80.17357 q -1.80636,3.60464 -5.17826,3.60464 h -31.1901 q -3.37189,0 -5.17828,-3.60464 l -32.87602,-80.17357 v 0 77.9361 q 0,2.36175 -1.68595,4.10196 -1.68597,1.61586 -3.97404,1.61586 h -33.83944 q -2.4085,0 -4.09445,-1.61586 -1.56551,-1.74021 -1.56551,-4.10196 V 76.96801 q 0,-2.485977 1.56551,-4.101897 1.68595,-1.740205 4.09445,-1.740205 h 35.76624 q 3.3719,0 5.17829,3.48044 l 52.26447,127.158922 z"
     id="text1"
     inkscape:label="M" />
</svg>
