<?xml version="1.0" encoding="UTF-8" standalone="no"?>
<!-- Created with Inkscape (http://www.inkscape.org/) -->

<svg
   width="320"
   height="320"
   viewBox="0 0 320 320"
   version="1.1"
   id="svg1"
   inkscape:version="1.3.2 (1:1.3.2+202311252150+091e20ef0f)"
   sodipodi:docname="mbin-logo-maskable.svg"
   inkscape:export-filename="../../../public/assets/icons/icon-512-maskable.png"
   inkscape:export-xdpi="153.60001"
   inkscape:export-ydpi="153.60001"
   xmlns:inkscape="http://www.inkscape.org/namespaces/inkscape"
   xmlns:sodipodi="http://sodipodi.sourceforge.net/DTD/sodipodi-0.dtd"
   xmlns:xlink="http://www.w3.org/1999/xlink"
   xmlns="http://www.w3.org/2000/svg"
   xmlns:svg="http://www.w3.org/2000/svg">
  <sodipodi:namedview
     id="namedview1"
     pagecolor="#bfbfbf"
     bordercolor="#ffffff"
     borderopacity="1"
     inkscape:showpageshadow="0"
     inkscape:pageopacity="0"
     inkscape:pagecheckerboard="1"
     inkscape:deskcolor="#d1d1d1"
     inkscape:document-units="px"
     showgrid="false"
     inkscape:zoom="2"
     inkscape:cx="125.5"
     inkscape:cy="171.25"
     inkscape:window-width="1920"
     inkscape:window-height="1008"
     inkscape:window-x="1920"
     inkscape:window-y="0"
     inkscape:window-maximized="1"
     inkscape:current-layer="svg1"
     showguides="true">
    <inkscape:grid
       type="axonomgrid"
       id="grid1"
       units="px"
       originx="274"
       originy="25.000006"
       spacingx="0"
       spacingy="5"
       empcolor="#3f3fff"
       empopacity="0.25098039"
       color="#3f3fff"
       opacity="0.10196078"
       empspacing="2"
       dotted="false"
       gridanglex="30"
       gridanglez="30"
       visible="false" />
    <sodipodi:guide
       position="-12.999999,-192"
       orientation="0,1"
       id="guide2"
       inkscape:locked="false"
       inkscape:label=""
       inkscape:color="rgb(0,134,229)" />
    <sodipodi:guide
       position="160,159.81284"
       orientation="0,1"
       id="guide3"
       inkscape:locked="false"
       inkscape:label=""
       inkscape:color="rgb(0,134,229)" />
    <sodipodi:guide
       position="32,329.89949"
       orientation="-1,0"
       id="guide7"
       inkscape:locked="false"
       inkscape:label=""
       inkscape:color="rgb(0,134,229)" />
    <sodipodi:guide
       position="160,74.633948"
       orientation="-1,0"
       id="guide8"
       inkscape:locked="false"
       inkscape:label=""
       inkscape:color="rgb(0,134,229)" />
  </sodipodi:namedview>
  <defs
     id="defs1">
    <rect
       x="24.411255"
       y="279.42432"
       width="212.46253"
       height="78.889647"
       id="rect1" />
    <inkscape:path-effect
       effect="fillet_chamfer"
       id="path-effect39"
       is_visible="true"
       lpeversion="1"
       nodesatellites_param="F,0,0,1,0,0,0,1 @ F,0,0,1,0,0,0,1 @ F,0,0,1,0,0,0,1 @ F,0,0,1,0,0,0,1 @ F,0,0,1,0,0,0,1 @ F,0,0,1,0,0,0,1 @ F,0,0,1,0,0,0,1 @ F,0,0,1,0,0,0,1 | F,0,0,1,0,0,0,1 @ F,0,1,1,0,4.3305888,0,1 @ F,0,0,1,0,0,0,1 @ F,0,1,1,0,4.3305888,0,1"
       radius="0"
       unit="px"
       method="auto"
       mode="F"
       chamfer_steps="1"
       flexible="false"
       use_knot_distance="true"
       apply_no_radius="true"
       apply_with_radius="true"
       only_selected="true"
       hide_knots="false" />
    <inkscape:path-effect
       effect="fillet_chamfer"
       id="path-effect31"
       is_visible="true"
       lpeversion="1"
       nodesatellites_param="F,0,0,1,0,8.6602542,0,1 @ F,0,1,1,0,8.660254,0,1 @ F,0,0,1,0,8.6602534,0,1"
       radius="8"
       unit="px"
       method="auto"
       mode="F"
       chamfer_steps="1"
       flexible="false"
       use_knot_distance="true"
       apply_no_radius="true"
       apply_with_radius="true"
       only_selected="true"
       hide_knots="false" />
    <inkscape:path-effect
       effect="fillet_chamfer"
       id="path-effect29"
       is_visible="true"
       lpeversion="1"
       nodesatellites_param="F,0,0,1,0,2,0,1 @ F,0,0,1,0,2,0,1 @ F,0,0,1,0,2,0,1 @ F,0,0,1,0,2,0,1"
       radius="2"
       unit="px"
       method="auto"
       mode="F"
       chamfer_steps="1"
       flexible="false"
       use_knot_distance="true"
       apply_no_radius="true"
       apply_with_radius="true"
       only_selected="false"
       hide_knots="false" />
    <inkscape:path-effect
       effect="fillet_chamfer"
       id="path-effect28"
       is_visible="true"
       lpeversion="1"
       nodesatellites_param="F,0,0,1,0,2,0,1 @ F,0,0,1,0,2,0,1 @ F,0,0,1,0,2,0,1 @ F,0,0,1,0,2,0,1"
       radius="2"
       unit="px"
       method="auto"
       mode="F"
       chamfer_steps="1"
       flexible="false"
       use_knot_distance="true"
       apply_no_radius="true"
       apply_with_radius="true"
       only_selected="false"
       hide_knots="false" />
    <inkscape:path-effect
       effect="fillet_chamfer"
       id="path-effect27"
       is_visible="true"
       lpeversion="1"
       nodesatellites_param="F,0,1,1,0,8.660254,0,1 @ F,0,1,1,0,8.660254,0,1 @ F,0,0,1,0,0,0,1 @ F,0,0,1,0,0,0,1 @ F,0,0,1,0,0,0,1 @ F,0,0,1,0,0,0,1 @ F,0,0,1,0,0,0,1 @ F,0,0,1,0,0,0,1 @ F,0,0,1,0,0,0,1"
       radius="5"
       unit="px"
       method="auto"
       mode="F"
       chamfer_steps="1"
       flexible="false"
       use_knot_distance="true"
       apply_no_radius="true"
       apply_with_radius="true"
       only_selected="true"
       hide_knots="false" />
    <inkscape:path-effect
       effect="fillet_chamfer"
       id="path-effect25"
       is_visible="true"
       lpeversion="1"
       nodesatellites_param="F,0,0,1,0,8.6602542,0,1 @ F,0,1,1,0,8.660254,0,1 @ F,0,0,1,0,8.6602534,0,1"
       radius="8"
       unit="px"
       method="auto"
       mode="F"
       chamfer_steps="1"
       flexible="false"
       use_knot_distance="true"
       apply_no_radius="true"
       apply_with_radius="true"
       only_selected="true"
       hide_knots="false" />
    <inkscape:path-effect
       effect="fillet_chamfer"
       id="path-effect21"
       is_visible="true"
       lpeversion="1"
       nodesatellites_param="F,0,1,1,0,8.660254,0,1 @ F,0,1,1,0,8.660254,0,1 @ F,0,0,1,0,0,0,1 @ F,0,0,1,0,0,0,1 @ F,0,0,1,0,0,0,1 @ F,0,0,1,0,0,0,1 @ F,0,0,1,0,0,0,1 @ F,0,0,1,0,0,0,1 @ F,0,0,1,0,0,0,1"
       radius="5"
       unit="px"
       method="auto"
       mode="F"
       chamfer_steps="1"
       flexible="false"
       use_knot_distance="true"
       apply_no_radius="true"
       apply_with_radius="true"
       only_selected="true"
       hide_knots="false" />
    <inkscape:path-effect
       effect="fillet_chamfer"
       id="path-effect20"
       is_visible="true"
       lpeversion="1"
       nodesatellites_param="F,0,0,1,0,8.6602542,0,1 @ F,0,1,1,0,8.660254,0,1 @ F,0,0,1,0,8.6602534,0,1"
       radius="8"
       unit="px"
       method="auto"
       mode="F"
       chamfer_steps="1"
       flexible="false"
       use_knot_distance="true"
       apply_no_radius="true"
       apply_with_radius="true"
       only_selected="true"
       hide_knots="false" />
    <linearGradient
       inkscape:collect="always"
       xlink:href="#linearGradient8"
       id="linearGradient9"
       x1="105.88936"
       y1="-7.966506"
       x2="153.52075"
       y2="74.533493"
       gradientUnits="userSpaceOnUse" />
    <linearGradient
       id="linearGradient8"
       inkscape:collect="always">
      <stop
         style="stop-color:#2de2e6;stop-opacity:1;"
         offset="0"
         id="stop8" />
      <stop
         style="stop-color:#3399ff;stop-opacity:1;"
         offset="1"
         id="stop11" />
    </linearGradient>
    <inkscape:path-effect
       effect="fillet_chamfer"
       id="path-effect20-6"
       is_visible="true"
       lpeversion="1"
       nodesatellites_param="F,0,0,1,0,8.6602542,0,1 @ F,0,1,1,0,8.660254,0,1 @ F,0,0,1,0,8.6602534,0,1"
       radius="8"
       unit="px"
       method="auto"
       mode="F"
       chamfer_steps="1"
       flexible="false"
       use_knot_distance="true"
       apply_no_radius="true"
       apply_with_radius="true"
       only_selected="true"
       hide_knots="false" />
    <inkscape:path-effect
       effect="fillet_chamfer"
       id="path-effect39-7"
       is_visible="true"
       lpeversion="1"
       nodesatellites_param="F,0,0,1,0,0,0,1 @ F,0,0,1,0,0,0,1 @ F,0,0,1,0,0,0,1 @ F,0,0,1,0,0,0,1 @ F,0,0,1,0,0,0,1 @ F,0,0,1,0,0,0,1 @ F,0,0,1,0,0,0,1 @ F,0,0,1,0,0,0,1 | F,0,0,1,0,0,0,1 @ F,0,1,1,0,4.3305888,0,1 @ F,0,0,1,0,0,0,1 @ F,0,1,1,0,4.3305888,0,1"
       radius="0"
       unit="px"
       method="auto"
       mode="F"
       chamfer_steps="1"
       flexible="false"
       use_knot_distance="true"
       apply_no_radius="true"
       apply_with_radius="true"
       only_selected="true"
       hide_knots="false" />
    <linearGradient
       inkscape:collect="always"
       xlink:href="#linearGradient6"
       id="linearGradient7"
       x1="97.229103"
       y1="82.033493"
       x2="97.229103"
       y2="107.03349"
       gradientUnits="userSpaceOnUse" />
    <linearGradient
       id="linearGradient6"
       inkscape:collect="always">
      <stop
         style="stop-color:#f623ac;stop-opacity:1;"
         offset="0"
         id="stop6" />
      <stop
         style="stop-color:#f706cf;stop-opacity:1;"
         offset="1"
         id="stop7" />
    </linearGradient>
    <inkscape:path-effect
       effect="fillet_chamfer"
       id="path-effect21-5"
       is_visible="true"
       lpeversion="1"
       nodesatellites_param="F,0,1,1,0,8.660254,0,1 @ F,0,1,1,0,8.660254,0,1 @ F,0,0,1,0,0,0,1 @ F,0,0,1,0,0,0,1 @ F,0,0,1,0,0,0,1 @ F,0,0,1,0,0,0,1 @ F,0,0,1,0,0,0,1 @ F,0,0,1,0,0,0,1 @ F,0,0,1,0,0,0,1"
       radius="5"
       unit="px"
       method="auto"
       mode="F"
       chamfer_steps="1"
       flexible="false"
       use_knot_distance="true"
       apply_no_radius="true"
       apply_with_radius="true"
       only_selected="true"
       hide_knots="false" />
  </defs>
  <rect
     style="display:inline;opacity:1;fill:#29144a;fill-opacity:1;stroke:none;stroke-width:4.50918;stroke-linecap:round;stroke-linejoin:round;stroke-dasharray:none;stroke-opacity:1"
     id="rect35"
     width="337.22076"
     height="328.28177"
     x="-4.2902832"
     y="-4.6620121"
     inkscape:label="bg color" />
  <g
     inkscape:label="logo"
     inkscape:groupmode="layer"
     id="layer1"
     style="display:inline;fill:none"
     transform="matrix(1.215068,0,0,1.1187097,34.740627,43.127764)">
    <path
       style="display:inline;opacity:1;fill:url(#linearGradient9);fill-opacity:1;stroke:none;stroke-width:1;stroke-linecap:round;stroke-linejoin:round;stroke-dasharray:none;stroke-opacity:1"
       d="M 92.898977,-25.466506 23.616945,94.53349 a 4.9999999,4.9999999 60 0 0 4.330127,7.5 H 166.51114 a 4.9999996,4.9999996 120 0 0 4.33012,-7.499999 L 101.55923,-25.466506 a 5.0000002,5.0000002 180 0 0 -8.660253,0 z"
       id="path5"
       sodipodi:nodetypes="cccc"
       inkscape:label="bg triangle"
       inkscape:path-effect="#path-effect20-6"
       inkscape:original-d="M 97.229104,-32.966506 19.286818,102.03349 H 175.17139 Z"
       transform="translate(5.8501312,19.942587)" />
    <path
       id="path1"
       style="display:inline;opacity:1;fill:#241734;fill-opacity:1;stroke:none;stroke-width:1;stroke-linecap:round;stroke-linejoin:round;stroke-dasharray:none;stroke-opacity:1"
       inkscape:label="negative m"
       d="M 103.61607,27.033498 60.315284,102.0335 H 77.635596 L 90.625831,79.533498 103.61607,102.0335 116.60825,79.533498 129.59849,102.0335 h 17.32031 z m 0,15 10.82666,18.74973 a 7.4997612,7.4997612 90 0 1 0,7.50054 l -10.82666,18.74973 -10.824962,-18.74959 a 7.5008819,7.5008819 90 0 1 0,-7.50082 z"
       inkscape:path-effect="#path-effect39-7"
       inkscape:original-d="M 103.61607,27.033498 60.315284,102.0335 H 77.635596 L 90.625831,79.533498 103.61607,102.0335 116.60825,79.533498 129.59849,102.0335 h 17.32031 z m 0,15 12.99218,22.5 -12.99218,22.5 -12.990239,-22.5 z"
       transform="translate(-0.5188027,0.07359983)" />
    <path
       style="display:inline;opacity:1;fill:url(#linearGradient7);fill-opacity:1;stroke:none;stroke-width:1;stroke-linecap:round;stroke-linejoin:round;stroke-dasharray:none;stroke-opacity:1"
       d="M 27.947072,102.03349 H 166.51114 a 5.0000006,5.0000006 120 0 0 4.33012,-7.5 l -7.21687,-12.499996 h -40.41452 l -12.99038,-22.5 -12.990386,22.5 -12.990381,-22.5 -12.990381,22.5 H 30.833821 L 23.616945,94.53349 a 5,5 60 0 0 4.330127,7.5 z"
       id="path6"
       inkscape:label="ground bg"
       inkscape:path-effect="#path-effect21-5"
       inkscape:original-d="M 19.286818,102.03349 H 175.17139 l -11.547,-19.999996 h -40.41452 l -12.99038,-22.5 -12.990386,22.5 -12.990381,-22.5 -12.990381,22.5 H 30.833821 Z"
       transform="matrix(1.0010224,0,0,0.99951715,5.756584,20.050224)" />
  </g>
  <path
     style="font-size:40px;line-height:1.25;font-family:SEGEK;-inkscape-font-specification:'SEGEK, Normal';white-space:pre;fill:#ffffff;stroke-width:1.67791"
     d="m 252.93979,188.1222 v 0 q 0,-0.61143 0.4918,-1.00886 0.49182,-0.42801 1.1593,-0.42801 h 9.87142 q 0.70259,0 1.15928,0.42801 0.49182,0.39743 0.49182,1.00886 v 40.90509 q 0,0.58088 -0.49182,1.00888 -0.45669,0.42799 -1.15928,0.42799 h -10.64428 q -0.80799,0 -1.33493,-0.61143 l -21.9209,-27.33119 v 26.50575 q 0,0.58088 -0.49182,1.00888 -0.4918,0.42799 -1.15928,0.42799 h -9.87142 q -0.70259,0 -1.19441,-0.42799 -0.45669,-0.428 -0.45669,-1.00888 V 188.1222 q 0,-0.61143 0.45669,-1.00886 0.49182,-0.42801 1.19441,-0.42801 h 10.64428 q 0.80798,0 1.33494,0.61145 l 21.92089,27.33121 z"
     id="path4"
     inkscape:label="N" />
  <path
     style="font-size:40px;line-height:1.25;font-family:SEGEK;-inkscape-font-specification:'SEGEK, Normal';white-space:pre;fill:#ffffff;stroke-width:1.67791"
     d="m 187.37087,228.97839 v 0 q 0,0.58088 0.49182,1.00888 0.49181,0.39743 1.15927,0.39743 h 9.87144 q 0.66746,0 1.15928,-0.39743 0.49181,-0.428 0.49181,-1.00888 v -40.90508 q 0,-0.61143 -0.49181,-1.00887 -0.49182,-0.42801 -1.15928,-0.42801 h -9.87144 q -0.66746,0 -1.15927,0.42801 -0.49182,0.39744 -0.49182,1.00887 z"
     id="path3"
     inkscape:label="I" />
  <path
     style="font-size:40px;line-height:1.25;font-family:SEGEK;-inkscape-font-specification:'SEGEK, Normal';white-space:pre;fill:#ffffff;stroke-width:1.67791"
     d="m 170.4194,213.1038 v 0 q 0.77285,1.9566 0.77285,4.09661 0,2.1706 -0.77285,4.1272 -1.01877,2.65975 -3.12655,4.70806 -2.10777,2.01775 -5.02353,3.17947 -2.88063,1.16173 -6.21795,1.16173 h -25.01231 q -0.66746,0 -1.15927,-0.39743 -0.45669,-0.428 -0.45669,-1.00888 V 188.0349 q 0,-0.58085 0.45669,-0.97829 0.49181,-0.42801 1.15927,-0.42801 h 22.62349 q 3.37245,0 6.28822,1.16173 2.91575,1.16173 5.02354,3.21004 2.10777,2.01774 3.12653,4.67749 0.77286,1.98716 0.77286,4.18832 0,2.20119 -0.77286,4.18836 -0.70259,1.83431 -1.93213,3.36289 2.95089,2.32347 4.25069,5.68637 z m -27.85781,-17.42594 v 0 8.37668 h 11.10096 q 2.00239,0 3.40759,-1.22286 1.40518,-1.22288 1.40518,-2.9655 0,-1.74258 -1.40518,-2.96546 -1.4052,-1.22286 -3.40759,-1.22286 z m 13.48978,25.64975 v 0 q 1.96726,0 3.33732,-1.1923 1.37006,-1.22287 1.37006,-2.9349 0,-1.68144 -1.37006,-2.87374 -1.37006,-1.22287 -3.33732,-1.22287 h -15.80834 l 2.31856,1.52859 v 6.69522 z"
     id="path2"
     inkscape:label="B" />
  <path
     style="font-size:40px;line-height:1.25;font-family:SEGEK;-inkscape-font-specification:'SEGEK, Normal';white-space:pre;fill:#ffffff;stroke-width:1.67791"
     d="m 98.196717,187.56171 v 0 q 0.526945,-0.88659 1.510576,-0.88659 h 10.433517 q 0.66746,0 1.15928,0.42801 0.49181,0.39743 0.49181,1.00887 v 40.90508 q 0,0.58087 -0.49181,1.00888 -0.49182,0.42799 -1.15928,0.42799 h -9.87144 q -0.702596,0 -1.194413,-0.42799 -0.456684,-0.42801 -0.456684,-1.00888 v -19.16852 l -9.625522,19.71882 q -0.526946,0.88657 -1.510575,0.88657 h -9.098579 q -0.983631,0 -1.510575,-0.88657 l -9.590394,-19.71882 v 0 19.16852 q 0,0.58087 -0.491813,1.00888 -0.491816,0.39742 -1.159281,0.39742 h -9.871429 q -0.702594,0 -1.194407,-0.39742 -0.456686,-0.42801 -0.456686,-1.00888 V 188.112 q 0,-0.61144 0.456686,-1.00887 0.491813,-0.42801 1.194407,-0.42801 H 66.19361 q 0.98363,0 1.510574,0.85603 l 15.246268,31.27495 z"
     id="text1"
     inkscape:label="M" />
  <ellipse
     style="display:none;opacity:0.75;fill:#ffd700;fill-opacity:1;stroke-width:15.2586"
     id="path7"
     cx="103.06934"
     cy="82.035629"
     rx="70.946396"
     ry="77.057266"
     transform="matrix(1.8041154,0,0,1.661044,-25.946416,23.925459)"
     inkscape:label="safe zone circle!"
     sodipodi:insensitive="true" />
</svg>
