<?xml version="1.0" encoding="UTF-8" standalone="no"?>
<!-- Created with Inkscape (http://www.inkscape.org/) -->

<svg
   width="320"
   height="320"
   viewBox="0 0 320 320"
   version="1.1"
   id="svg1"
   inkscape:version="1.3.2 (1:1.3.2+202311252150+091e20ef0f)"
   sodipodi:docname="mbin-logo-maskable.svg"
   inkscape:export-filename="../../../public/assets/icons/icon-192-maskable.png"
   inkscape:export-xdpi="57.599998"
   inkscape:export-ydpi="57.599998"
   xmlns:inkscape="http://www.inkscape.org/namespaces/inkscape"
   xmlns:sodipodi="http://sodipodi.sourceforge.net/DTD/sodipodi-0.dtd"
   xmlns:xlink="http://www.w3.org/1999/xlink"
   xmlns="http://www.w3.org/2000/svg"
   xmlns:svg="http://www.w3.org/2000/svg">
  <sodipodi:namedview
     id="namedview1"
     pagecolor="#bfbfbf"
     bordercolor="#ffffff"
     borderopacity="1"
     inkscape:showpageshadow="0"
     inkscape:pageopacity="0"
     inkscape:pagecheckerboard="1"
     inkscape:deskcolor="#d1d1d1"
     inkscape:document-units="px"
     showgrid="false"
     inkscape:zoom="2"
     inkscape:cx="19"
     inkscape:cy="163.75"
     inkscape:window-width="1920"
     inkscape:window-height="1048"
     inkscape:window-x="3840"
     inkscape:window-y="0"
     inkscape:window-maximized="1"
     inkscape:current-layer="layer1"
     showguides="true">
    <inkscape:grid
       type="axonomgrid"
       id="grid1"
       units="px"
       originx="274"
       originy="25.000006"
       spacingx="0"
       spacingy="5"
       empcolor="#3f3fff"
       empopacity="0.25098039"
       color="#3f3fff"
       opacity="0.10196078"
       empspacing="2"
       dotted="false"
       gridanglex="30"
       gridanglez="30"
       visible="false" />
    <sodipodi:guide
       position="-12.999999,-192"
       orientation="0,1"
       id="guide2"
       inkscape:locked="false"
       inkscape:label=""
       inkscape:color="rgb(0,134,229)" />
    <sodipodi:guide
       position="160,159.81284"
       orientation="0,1"
       id="guide3"
       inkscape:locked="false"
       inkscape:label=""
       inkscape:color="rgb(0,134,229)" />
    <sodipodi:guide
       position="32,329.89949"
       orientation="-1,0"
       id="guide7"
       inkscape:locked="false"
       inkscape:label=""
       inkscape:color="rgb(0,134,229)" />
    <sodipodi:guide
       position="160,74.633948"
       orientation="-1,0"
       id="guide8"
       inkscape:locked="false"
       inkscape:label=""
       inkscape:color="rgb(0,134,229)" />
  </sodipodi:namedview>
  <defs
     id="defs1">
    <rect
       x="24.411255"
       y="279.42432"
       width="212.46253"
       height="78.889647"
       id="rect1" />
    <inkscape:path-effect
       effect="fillet_chamfer"
       id="path-effect39"
       is_visible="true"
       lpeversion="1"
       nodesatellites_param="F,0,0,1,0,0,0,1 @ F,0,0,1,0,0,0,1 @ F,0,0,1,0,0,0,1 @ F,0,0,1,0,0,0,1 @ F,0,0,1,0,0,0,1 @ F,0,0,1,0,0,0,1 @ F,0,0,1,0,0,0,1 @ F,0,0,1,0,0,0,1 | F,0,0,1,0,0,0,1 @ F,0,1,1,0,4.3305888,0,1 @ F,0,0,1,0,0,0,1 @ F,0,1,1,0,4.3305888,0,1"
       radius="0"
       unit="px"
       method="auto"
       mode="F"
       chamfer_steps="1"
       flexible="false"
       use_knot_distance="true"
       apply_no_radius="true"
       apply_with_radius="true"
       only_selected="true"
       hide_knots="false" />
    <inkscape:path-effect
       effect="fillet_chamfer"
       id="path-effect31"
       is_visible="true"
       lpeversion="1"
       nodesatellites_param="F,0,0,1,0,8.6602542,0,1 @ F,0,1,1,0,8.660254,0,1 @ F,0,0,1,0,8.6602534,0,1"
       radius="8"
       unit="px"
       method="auto"
       mode="F"
       chamfer_steps="1"
       flexible="false"
       use_knot_distance="true"
       apply_no_radius="true"
       apply_with_radius="true"
       only_selected="true"
       hide_knots="false" />
    <inkscape:path-effect
       effect="fillet_chamfer"
       id="path-effect29"
       is_visible="true"
       lpeversion="1"
       nodesatellites_param="F,0,0,1,0,2,0,1 @ F,0,0,1,0,2,0,1 @ F,0,0,1,0,2,0,1 @ F,0,0,1,0,2,0,1"
       radius="2"
       unit="px"
       method="auto"
       mode="F"
       chamfer_steps="1"
       flexible="false"
       use_knot_distance="true"
       apply_no_radius="true"
       apply_with_radius="true"
       only_selected="false"
       hide_knots="false" />
    <inkscape:path-effect
       effect="fillet_chamfer"
       id="path-effect28"
       is_visible="true"
       lpeversion="1"
       nodesatellites_param="F,0,0,1,0,2,0,1 @ F,0,0,1,0,2,0,1 @ F,0,0,1,0,2,0,1 @ F,0,0,1,0,2,0,1"
       radius="2"
       unit="px"
       method="auto"
       mode="F"
       chamfer_steps="1"
       flexible="false"
       use_knot_distance="true"
       apply_no_radius="true"
       apply_with_radius="true"
       only_selected="false"
       hide_knots="false" />
    <inkscape:path-effect
       effect="fillet_chamfer"
       id="path-effect27"
       is_visible="true"
       lpeversion="1"
       nodesatellites_param="F,0,1,1,0,8.660254,0,1 @ F,0,1,1,0,8.660254,0,1 @ F,0,0,1,0,0,0,1 @ F,0,0,1,0,0,0,1 @ F,0,0,1,0,0,0,1 @ F,0,0,1,0,0,0,1 @ F,0,0,1,0,0,0,1 @ F,0,0,1,0,0,0,1 @ F,0,0,1,0,0,0,1"
       radius="5"
       unit="px"
       method="auto"
       mode="F"
       chamfer_steps="1"
       flexible="false"
       use_knot_distance="true"
       apply_no_radius="true"
       apply_with_radius="true"
       only_selected="true"
       hide_knots="false" />
    <inkscape:path-effect
       effect="fillet_chamfer"
       id="path-effect25"
       is_visible="true"
       lpeversion="1"
       nodesatellites_param="F,0,0,1,0,8.6602542,0,1 @ F,0,1,1,0,8.660254,0,1 @ F,0,0,1,0,8.6602534,0,1"
       radius="8"
       unit="px"
       method="auto"
       mode="F"
       chamfer_steps="1"
       flexible="false"
       use_knot_distance="true"
       apply_no_radius="true"
       apply_with_radius="true"
       only_selected="true"
       hide_knots="false" />
    <inkscape:path-effect
       effect="fillet_chamfer"
       id="path-effect21"
       is_visible="true"
       lpeversion="1"
       nodesatellites_param="F,0,1,1,0,8.660254,0,1 @ F,0,1,1,0,8.660254,0,1 @ F,0,0,1,0,0,0,1 @ F,0,0,1,0,0,0,1 @ F,0,0,1,0,0,0,1 @ F,0,0,1,0,0,0,1 @ F,0,0,1,0,0,0,1 @ F,0,0,1,0,0,0,1 @ F,0,0,1,0,0,0,1"
       radius="5"
       unit="px"
       method="auto"
       mode="F"
       chamfer_steps="1"
       flexible="false"
       use_knot_distance="true"
       apply_no_radius="true"
       apply_with_radius="true"
       only_selected="true"
       hide_knots="false" />
    <inkscape:path-effect
       effect="fillet_chamfer"
       id="path-effect20"
       is_visible="true"
       lpeversion="1"
       nodesatellites_param="F,0,0,1,0,8.6602542,0,1 @ F,0,1,1,0,8.660254,0,1 @ F,0,0,1,0,8.6602534,0,1"
       radius="8"
       unit="px"
       method="auto"
       mode="F"
       chamfer_steps="1"
       flexible="false"
       use_knot_distance="true"
       apply_no_radius="true"
       apply_with_radius="true"
       only_selected="true"
       hide_knots="false" />
    <linearGradient
       inkscape:collect="always"
       xlink:href="#linearGradient8"
       id="linearGradient9"
       x1="105.88936"
       y1="-7.966506"
       x2="153.52075"
       y2="74.533493"
       gradientUnits="userSpaceOnUse" />
    <linearGradient
       id="linearGradient8"
       inkscape:collect="always">
      <stop
         style="stop-color:#2de2e6;stop-opacity:1;"
         offset="0"
         id="stop8" />
      <stop
         style="stop-color:#3399ff;stop-opacity:1;"
         offset="1"
         id="stop11" />
    </linearGradient>
    <inkscape:path-effect
       effect="fillet_chamfer"
       id="path-effect20-6"
       is_visible="true"
       lpeversion="1"
       nodesatellites_param="F,0,0,1,0,8.6602542,0,1 @ F,0,1,1,0,8.660254,0,1 @ F,0,0,1,0,8.6602534,0,1"
       radius="8"
       unit="px"
       method="auto"
       mode="F"
       chamfer_steps="1"
       flexible="false"
       use_knot_distance="true"
       apply_no_radius="true"
       apply_with_radius="true"
       only_selected="true"
       hide_knots="false" />
    <inkscape:path-effect
       effect="fillet_chamfer"
       id="path-effect39-7"
       is_visible="true"
       lpeversion="1"
       nodesatellites_param="F,0,0,1,0,0,0,1 @ F,0,0,1,0,0,0,1 @ F,0,0,1,0,0,0,1 @ F,0,0,1,0,0,0,1 @ F,0,0,1,0,0,0,1 @ F,0,0,1,0,0,0,1 @ F,0,0,1,0,0,0,1 @ F,0,0,1,0,0,0,1 | F,0,0,1,0,0,0,1 @ F,0,1,1,0,4.3305888,0,1 @ F,0,0,1,0,0,0,1 @ F,0,1,1,0,4.3305888,0,1"
       radius="0"
       unit="px"
       method="auto"
       mode="F"
       chamfer_steps="1"
       flexible="false"
       use_knot_distance="true"
       apply_no_radius="true"
       apply_with_radius="true"
       only_selected="true"
       hide_knots="false" />
    <linearGradient
       inkscape:collect="always"
       xlink:href="#linearGradient6"
       id="linearGradient7"
       x1="97.229103"
       y1="82.033493"
       x2="97.229103"
       y2="107.03349"
       gradientUnits="userSpaceOnUse" />
    <linearGradient
       id="linearGradient6"
       inkscape:collect="always">
      <stop
         style="stop-color:#f623ac;stop-opacity:1;"
         offset="0"
         id="stop6" />
      <stop
         style="stop-color:#f706cf;stop-opacity:1;"
         offset="1"
         id="stop7" />
    </linearGradient>
    <inkscape:path-effect
       effect="fillet_chamfer"
       id="path-effect21-5"
       is_visible="true"
       lpeversion="1"
       nodesatellites_param="F,0,1,1,0,8.660254,0,1 @ F,0,1,1,0,8.660254,0,1 @ F,0,0,1,0,0,0,1 @ F,0,0,1,0,0,0,1 @ F,0,0,1,0,0,0,1 @ F,0,0,1,0,0,0,1 @ F,0,0,1,0,0,0,1 @ F,0,0,1,0,0,0,1 @ F,0,0,1,0,0,0,1"
       radius="5"
       unit="px"
       method="auto"
       mode="F"
       chamfer_steps="1"
       flexible="false"
       use_knot_distance="true"
       apply_no_radius="true"
       apply_with_radius="true"
       only_selected="true"
       hide_knots="false" />
  </defs>
  <rect
     style="display:inline;opacity:1;fill:#29144a;fill-opacity:1;stroke:none;stroke-width:4.50918;stroke-linecap:round;stroke-linejoin:round;stroke-dasharray:none;stroke-opacity:1"
     id="rect35"
     width="337.22076"
     height="328.28177"
     x="-4.2902832"
     y="-4.6620121"
     inkscape:label="bg color" />
  <g
     inkscape:label="logo"
     inkscape:groupmode="layer"
     id="layer1"
     style="display:inline;fill:none"
     transform="matrix(1.215068,0,0,1.1187097,35.204738,52.585634)">
    <path
       style="display:inline;opacity:1;fill:url(#linearGradient9);fill-opacity:1;stroke:none;stroke-width:1;stroke-linecap:round;stroke-linejoin:round;stroke-dasharray:none;stroke-opacity:1"
       d="M 92.898977,-25.466506 23.616945,94.53349 a 4.9999999,4.9999999 60 0 0 4.330127,7.5 H 166.51114 a 4.9999996,4.9999996 120 0 0 4.33012,-7.499999 L 101.55923,-25.466506 a 5.0000002,5.0000002 180 0 0 -8.660253,0 z"
       id="path5"
       sodipodi:nodetypes="cccc"
       inkscape:label="bg triangle"
       inkscape:path-effect="#path-effect20-6"
       inkscape:original-d="M 97.229104,-32.966506 19.286818,102.03349 H 175.17139 Z"
       transform="translate(5.5601051,25.131332)" />
    <path
       id="path1"
       style="display:inline;opacity:1;fill:#241734;fill-opacity:1;stroke:none;stroke-width:1;stroke-linecap:round;stroke-linejoin:round;stroke-dasharray:none;stroke-opacity:1"
       inkscape:label="negative m"
       d="M 103.61607,27.033498 60.315284,102.0335 H 77.635596 L 90.625831,79.533498 103.61607,102.0335 116.60825,79.533498 129.59849,102.0335 h 17.32031 z m 0,15 10.82666,18.74973 a 7.4997612,7.4997612 90 0 1 0,7.50054 l -10.82666,18.74973 -10.824962,-18.74959 a 7.5008819,7.5008819 90 0 1 0,-7.50082 z"
       inkscape:path-effect="#path-effect39-7"
       inkscape:original-d="M 103.61607,27.033498 60.315284,102.0335 H 77.635596 L 90.625831,79.533498 103.61607,102.0335 116.60825,79.533498 129.59849,102.0335 h 17.32031 z m 0,15 12.99218,22.5 -12.99218,22.5 -12.990239,-22.5 z"
       transform="translate(-0.80882886,5.2623456)" />
    <path
       style="display:inline;opacity:1;fill:url(#linearGradient7);fill-opacity:1;stroke:none;stroke-width:1;stroke-linecap:round;stroke-linejoin:round;stroke-dasharray:none;stroke-opacity:1"
       d="M 27.947072,102.03349 H 166.51114 a 5.0000006,5.0000006 120 0 0 4.33012,-7.5 l -7.21687,-12.499996 h -40.41452 l -12.99038,-22.5 -12.990386,22.5 -12.990381,-22.5 -12.990381,22.5 H 30.833821 L 23.616945,94.53349 a 5,5 60 0 0 4.330127,7.5 z"
       id="path6"
       inkscape:label="ground bg"
       inkscape:path-effect="#path-effect21-5"
       inkscape:original-d="M 19.286818,102.03349 H 175.17139 l -11.547,-19.999996 h -40.41452 l -12.99038,-22.5 -12.990386,22.5 -12.990381,-22.5 -12.990381,22.5 H 30.833821 Z"
       transform="matrix(1.0010224,0,0,0.99951715,5.4665579,25.238969)" />
  </g>
  <path
     style="font-size:40px;line-height:1.25;font-family:SEGEK;-inkscape-font-specification:'SEGEK, Normal';white-space:pre;fill:#ffffff;stroke-width:1.41781"
     d="m 239.424,205.46642 v 0 q 0,-0.50967 0.42125,-0.84095 0.42127,-0.35678 0.993,-0.35678 h 8.45543 q 0.60182,0 0.99299,0.35678 0.42128,0.33128 0.42128,0.84095 v 34.09708 q 0,0.48421 -0.42128,0.84098 -0.39117,0.35675 -0.99299,0.35675 h -9.11742 q -0.6921,0 -1.14344,-0.50966 l -18.7765,-22.78235 v 22.09428 q 0,0.48421 -0.42127,0.84098 -0.42125,0.35675 -0.99298,0.35675 h -8.45544 q -0.6018,0 -1.02308,-0.35675 -0.39118,-0.35677 -0.39118,-0.84098 v -34.09708 q 0,-0.50967 0.39118,-0.84095 0.42128,-0.35678 1.02308,-0.35678 h 9.11743 q 0.69208,0 1.14345,0.50969 l 18.77649,22.78236 z"
     id="path4"
     inkscape:label="N" />
  <path
     style="font-size:40px;line-height:1.25;font-family:SEGEK;-inkscape-font-specification:'SEGEK, Normal';white-space:pre;fill:#ffffff;stroke-width:1.41781"
     d="m 183.26051,239.52275 v 0 q 0,0.48419 0.42127,0.84096 0.42127,0.33128 0.99298,0.33128 h 8.45545 q 0.57171,0 0.99299,-0.33128 0.42126,-0.35677 0.42126,-0.84096 v -34.09708 q 0,-0.50967 -0.42126,-0.84097 -0.42128,-0.35677 -0.99299,-0.35677 h -8.45545 q -0.57171,0 -0.99298,0.35677 -0.42127,0.3313 -0.42127,0.84097 z"
     id="path3"
     inkscape:label="I" />
  <path
     style="font-size:40px;line-height:1.25;font-family:SEGEK;-inkscape-font-specification:'SEGEK, Normal';white-space:pre;fill:#ffffff;stroke-width:1.41781"
     d="m 168.74061,226.29023 v 0 q 0.662,1.63096 0.662,3.41479 0,1.80935 -0.662,3.44029 -0.87263,2.21708 -2.67805,3.92449 -1.80544,1.68192 -4.30295,2.6503 -2.46742,0.96837 -5.32602,0.96837 h -21.42446 q -0.57171,0 -0.99298,-0.33128 -0.39118,-0.35677 -0.39118,-0.84097 v -34.12257 q 0,-0.48417 0.39118,-0.81547 0.42127,-0.35677 0.99298,-0.35677 h 19.3783 q 2.88869,0 5.38621,0.96838 2.49751,0.96837 4.30295,2.67578 1.80542,1.68192 2.67805,3.89899 0.662,1.65643 0.662,3.49124 0,1.83483 -0.662,3.49127 -0.60181,1.52903 -1.65498,2.8032 2.5276,1.93676 3.64095,4.73996 z m -23.86178,-14.52567 v 0 6.98251 h 9.5086 q 1.71516,0 2.91879,-1.01933 1.20362,-1.01935 1.20362,-2.47194 0,-1.45255 -1.20362,-2.47191 -1.20363,-1.01933 -2.91879,-1.01933 z m 11.55476,21.38075 v 0 q 1.68507,0 2.8586,-0.99386 1.17353,-1.01934 1.17353,-2.44643 0,-1.40158 -1.17353,-2.39545 -1.17353,-1.01934 -2.8586,-1.01934 h -13.54074 l 1.98598,1.27419 v 5.58089 z"
     id="path2"
     inkscape:label="B" />
  <path
     style="font-size:40px;line-height:1.25;font-family:SEGEK;-inkscape-font-specification:'SEGEK, Normal';white-space:pre;fill:#ffffff;stroke-width:1.41781"
     d="m 106.8778,204.99921 v 0 q 0.45137,-0.73903 1.2939,-0.73903 h 8.9369 q 0.57172,0 0.99298,0.35678 0.42127,0.33128 0.42127,0.84096 V 239.555 q 0,0.48419 -0.42127,0.84096 -0.42126,0.35676 -0.99298,0.35676 h -8.45545 q -0.60181,0 -1.02308,-0.35676 -0.39117,-0.35677 -0.39117,-0.84096 v -15.97823 l -8.244803,16.43694 q -0.451363,0.73901 -1.293896,0.73901 h -7.793447 q -0.842537,0 -1.293894,-0.73901 l -8.214714,-16.43694 v 0 15.97823 q 0,0.48419 -0.421266,0.84096 -0.421268,0.33128 -0.992991,0.33128 h -8.455436 q -0.601811,0 -1.023077,-0.33128 -0.391177,-0.35677 -0.391177,-0.84096 v -34.09708 q 0,-0.50968 0.391177,-0.84096 0.421266,-0.35678 1.023077,-0.35678 h 8.936888 q 0.842534,0 1.293891,0.71357 l 13.05929,26.06972 z"
     id="text1"
     inkscape:label="M" />
  <ellipse
     style="display:none;opacity:0.75;fill:#ffd700;fill-opacity:1;stroke-width:15.2586"
     id="path7"
     cx="103.06934"
     cy="82.035629"
     rx="70.946396"
     ry="77.057266"
     transform="matrix(1.8041154,0,0,1.661044,-25.946416,23.925459)"
     inkscape:label="safe zone circle!"
     sodipodi:insensitive="true" />
</svg>
