<?xml version="1.0" encoding="UTF-8" standalone="no"?>
<!-- Created with Inkscape (http://www.inkscape.org/) -->

<svg
   width="1024"
   height="1024"
   viewBox="0 0 1024 1024"
   version="1.1"
   id="svg1"
   inkscape:version="1.3 (0e150ed6c4, 2023-07-21)"
   sodipodi:docname="mbin-notext.svg"
   inkscape:export-filename="export\mbin-icon-1024x.svg"
   inkscape:export-xdpi="96"
   inkscape:export-ydpi="96"
   xmlns:inkscape="http://www.inkscape.org/namespaces/inkscape"
   xmlns:sodipodi="http://sodipodi.sourceforge.net/DTD/sodipodi-0.dtd"
   xmlns:xlink="http://www.w3.org/1999/xlink"
   xmlns="http://www.w3.org/2000/svg"
   xmlns:svg="http://www.w3.org/2000/svg">
  <sodipodi:namedview
     id="namedview1"
     pagecolor="#bfbfbf"
     bordercolor="#ffffff"
     borderopacity="1"
     inkscape:showpageshadow="0"
     inkscape:pageopacity="0"
     inkscape:pagecheckerboard="1"
     inkscape:deskcolor="#d1d1d1"
     inkscape:document-units="px"
     showgrid="true"
     inkscape:zoom="1"
     inkscape:cx="507"
     inkscape:cy="516"
     inkscape:window-width="1855"
     inkscape:window-height="1057"
     inkscape:window-x="1137"
     inkscape:window-y="468"
     inkscape:window-maximized="1"
     inkscape:current-layer="svg1">
    <inkscape:grid
       type="axonomgrid"
       id="grid1"
       units="px"
       originx="434"
       originy="422"
       spacingx="0"
       spacingy="5"
       empcolor="#3f3fff"
       empopacity="0.25098039"
       color="#3f3fff"
       opacity="0.10196078"
       empspacing="2"
       dotted="false"
       gridanglex="30"
       gridanglez="30"
       visible="true" />
  </sodipodi:namedview>
  <defs
     id="defs1">
    <inkscape:path-effect
       effect="fillet_chamfer"
       id="path-effect39"
       is_visible="true"
       lpeversion="1"
       nodesatellites_param="F,0,0,1,0,0,0,1 @ F,0,0,1,0,0,0,1 @ F,0,0,1,0,0,0,1 @ F,0,0,1,0,0,0,1 @ F,0,0,1,0,0,0,1 @ F,0,0,1,0,0,0,1 @ F,0,0,1,0,0,0,1 @ F,0,0,1,0,0,0,1 | F,0,0,1,0,0,0,1 @ F,0,1,1,0,4.3305888,0,1 @ F,0,0,1,0,0,0,1 @ F,0,1,1,0,4.3305888,0,1"
       radius="0"
       unit="px"
       method="auto"
       mode="F"
       chamfer_steps="1"
       flexible="false"
       use_knot_distance="true"
       apply_no_radius="true"
       apply_with_radius="true"
       only_selected="true"
       hide_knots="false" />
    <linearGradient
       id="linearGradient32"
       inkscape:collect="always">
      <stop
         style="stop-color:#8c1eff;stop-opacity:1;"
         offset="0"
         id="stop32" />
      <stop
         style="stop-color:#f233ff;stop-opacity:1;"
         offset="0.50000423"
         id="stop35" />
      <stop
         style="stop-color:#ffffff;stop-opacity:1;"
         offset="1"
         id="stop34" />
    </linearGradient>
    <inkscape:path-effect
       effect="fillet_chamfer"
       id="path-effect31"
       is_visible="true"
       lpeversion="1"
       nodesatellites_param="F,0,0,1,0,8.6602542,0,1 @ F,0,1,1,0,8.660254,0,1 @ F,0,0,1,0,8.6602534,0,1"
       radius="8"
       unit="px"
       method="auto"
       mode="F"
       chamfer_steps="1"
       flexible="false"
       use_knot_distance="true"
       apply_no_radius="true"
       apply_with_radius="true"
       only_selected="true"
       hide_knots="false" />
    <inkscape:path-effect
       effect="fillet_chamfer"
       id="path-effect29"
       is_visible="true"
       lpeversion="1"
       nodesatellites_param="F,0,0,1,0,2,0,1 @ F,0,0,1,0,2,0,1 @ F,0,0,1,0,2,0,1 @ F,0,0,1,0,2,0,1"
       radius="2"
       unit="px"
       method="auto"
       mode="F"
       chamfer_steps="1"
       flexible="false"
       use_knot_distance="true"
       apply_no_radius="true"
       apply_with_radius="true"
       only_selected="false"
       hide_knots="false" />
    <inkscape:path-effect
       effect="fillet_chamfer"
       id="path-effect28"
       is_visible="true"
       lpeversion="1"
       nodesatellites_param="F,0,0,1,0,2,0,1 @ F,0,0,1,0,2,0,1 @ F,0,0,1,0,2,0,1 @ F,0,0,1,0,2,0,1"
       radius="2"
       unit="px"
       method="auto"
       mode="F"
       chamfer_steps="1"
       flexible="false"
       use_knot_distance="true"
       apply_no_radius="true"
       apply_with_radius="true"
       only_selected="false"
       hide_knots="false" />
    <inkscape:path-effect
       effect="fillet_chamfer"
       id="path-effect27"
       is_visible="true"
       lpeversion="1"
       nodesatellites_param="F,0,1,1,0,8.660254,0,1 @ F,0,1,1,0,8.660254,0,1 @ F,0,0,1,0,0,0,1 @ F,0,0,1,0,0,0,1 @ F,0,0,1,0,0,0,1 @ F,0,0,1,0,0,0,1 @ F,0,0,1,0,0,0,1 @ F,0,0,1,0,0,0,1 @ F,0,0,1,0,0,0,1"
       radius="5"
       unit="px"
       method="auto"
       mode="F"
       chamfer_steps="1"
       flexible="false"
       use_knot_distance="true"
       apply_no_radius="true"
       apply_with_radius="true"
       only_selected="true"
       hide_knots="false" />
    <inkscape:path-effect
       effect="fillet_chamfer"
       id="path-effect25"
       is_visible="true"
       lpeversion="1"
       nodesatellites_param="F,0,0,1,0,8.6602542,0,1 @ F,0,1,1,0,8.660254,0,1 @ F,0,0,1,0,8.6602534,0,1"
       radius="8"
       unit="px"
       method="auto"
       mode="F"
       chamfer_steps="1"
       flexible="false"
       use_knot_distance="true"
       apply_no_radius="true"
       apply_with_radius="true"
       only_selected="true"
       hide_knots="false" />
    <inkscape:path-effect
       effect="fillet_chamfer"
       id="path-effect21"
       is_visible="true"
       lpeversion="1"
       nodesatellites_param="F,0,1,1,0,8.660254,0,1 @ F,0,1,1,0,8.660254,0,1 @ F,0,0,1,0,0,0,1 @ F,0,0,1,0,0,0,1 @ F,0,0,1,0,0,0,1 @ F,0,0,1,0,0,0,1 @ F,0,0,1,0,0,0,1 @ F,0,0,1,0,0,0,1 @ F,0,0,1,0,0,0,1"
       radius="5"
       unit="px"
       method="auto"
       mode="F"
       chamfer_steps="1"
       flexible="false"
       use_knot_distance="true"
       apply_no_radius="true"
       apply_with_radius="true"
       only_selected="true"
       hide_knots="false" />
    <inkscape:path-effect
       effect="fillet_chamfer"
       id="path-effect20"
       is_visible="true"
       lpeversion="1"
       nodesatellites_param="F,0,0,1,0,8.6602542,0,1 @ F,0,1,1,0,8.660254,0,1 @ F,0,0,1,0,8.6602534,0,1"
       radius="8"
       unit="px"
       method="auto"
       mode="F"
       chamfer_steps="1"
       flexible="false"
       use_knot_distance="true"
       apply_no_radius="true"
       apply_with_radius="true"
       only_selected="true"
       hide_knots="false" />
    <linearGradient
       id="linearGradient8"
       inkscape:collect="always">
      <stop
         style="stop-color:#2de2e6;stop-opacity:1;"
         offset="0"
         id="stop8" />
      <stop
         style="stop-color:#3399ff;stop-opacity:1;"
         offset="1"
         id="stop11" />
    </linearGradient>
    <linearGradient
       id="linearGradient6"
       inkscape:collect="always">
      <stop
         style="stop-color:#f623ac;stop-opacity:1;"
         offset="0"
         id="stop6" />
      <stop
         style="stop-color:#f706cf;stop-opacity:1;"
         offset="1"
         id="stop7" />
    </linearGradient>
    <linearGradient
       inkscape:collect="always"
       xlink:href="#linearGradient6"
       id="linearGradient7"
       x1="97.229103"
       y1="82.033493"
       x2="97.229103"
       y2="107.03349"
       gradientUnits="userSpaceOnUse" />
    <linearGradient
       inkscape:collect="always"
       xlink:href="#linearGradient8"
       id="linearGradient9"
       x1="105.88936"
       y1="-7.966506"
       x2="153.52075"
       y2="74.533493"
       gradientUnits="userSpaceOnUse" />
    <linearGradient
       inkscape:collect="always"
       xlink:href="#linearGradient32"
       id="linearGradient34"
       x1="103.61607"
       y1="87.283501"
       x2="103.61694"
       y2="27.283499"
       gradientUnits="userSpaceOnUse"
       gradientTransform="translate(0,8.499999)" />
  </defs>
  <rect
     style="display:none;opacity:1;fill:#28134a;fill-opacity:1;stroke:none;stroke-width:29.7105;stroke-linecap:round;stroke-linejoin:round;stroke-dasharray:none;stroke-opacity:1"
     id="rect35"
     width="1024"
     height="1024"
     x="0"
     y="0"
     inkscape:label="bg color" />
  <circle
     style="display:none;opacity:0;fill:#ffffff;stroke-width:5.76;stroke-linecap:round;stroke-linejoin:round"
     id="path2"
     cx="512"
     cy="512"
     inkscape:label="pwa safe region"
     r="460.79999" />
  <g
     inkscape:label="logo"
     inkscape:groupmode="layer"
     id="layer1"
     style="display:inline;fill:none"
     transform="matrix(4.096,0,0,4.096,87.59427,183.47063)">
    <path
       id="path27"
       style="color:#000000;fill:url(#linearGradient34);fill-opacity:1;stroke:none;stroke-width:1.5;stroke-linecap:round;stroke-linejoin:round;stroke-dasharray:none;-inkscape-stroke:none"
       d="m 44.909034,49.945607 c -1.645004,0 -3,1.354997 -3,3 v 6.175782 c 0,1.645004 1.354996,3 3,3 h 17.521484 l 1.154297,-2 H 44.909034 c -0.564127,0 -1,-0.435873 -1,-1 v -6.175782 c 0,-0.564126 0.435873,-1 1,-1 h 23.396484 l 1.154297,-2 z m 92.865236,0 1.1543,2 H 162.327 c 0.56413,0 1,0.435874 1,1 v 6.175782 c 0,0.564127 -0.43587,1 -1,1 h -18.67773 l 1.1543,2 H 162.327 c 1.64501,0 3,-1.354996 3,-3 v -6.175782 c 0,-1.645003 -1.35499,-3 -3,-3 z m -92.865236,19.75 c -1.509894,0 -2.75,1.240106 -2.75,2.75 v 6.175782 c 0,1.509894 1.240106,2.75 2.75,2.75 h 6.40625 l 0.865234,-1.5 h -7.271484 c -0.699237,0 -1.25,-0.550764 -1.25,-1.25 v -6.175782 c 0,-0.699236 0.550763,-1.249999 1.25,-1.25 h 12.28125 l 0.867187,-1.5 z m 104.267576,0 0.86524,1.5 H 162.327 c 0.69924,0 1.25,0.550764 1.25,1.25 v 6.175782 c 0,0.699236 -0.55076,1.25 -1.25,1.25 h -7.27539 l 0.86524,1.5 h 6.41015 c 1.5099,0 2.75,-1.240106 2.75,-2.75 v -6.175782 c 0,-1.509894 -1.2401,-2.749999 -2.75,-2.75 z"
       sodipodi:nodetypes="ssssccssssccsccssssccsssscssssccssssccsccssssccssssc"
       inkscape:label="box" />
    <path
       style="display:inline;opacity:1;fill:url(#linearGradient9);fill-opacity:1;stroke:none;stroke-width:1;stroke-linecap:round;stroke-linejoin:round;stroke-dasharray:none;stroke-opacity:1"
       d="M 92.898977,-25.466506 23.616945,94.53349 a 4.9999999,4.9999999 60 0 0 4.330127,7.5 H 166.51114 a 4.9999996,4.9999996 120 0 0 4.33012,-7.499999 L 101.55923,-25.466506 a 5.0000002,5.0000002 180 0 0 -8.660253,0 z"
       id="path5"
       sodipodi:nodetypes="cccc"
       inkscape:label="bg triangle"
       inkscape:path-effect="#path-effect20"
       inkscape:original-d="M 97.229104,-32.966506 19.286818,102.03349 H 175.17139 Z"
       transform="translate(6.3878407,28.750004)" />
    <path
       style="display:inline;opacity:1;fill:url(#linearGradient7);fill-opacity:1;stroke:none;stroke-width:1;stroke-linecap:round;stroke-linejoin:round;stroke-dasharray:none;stroke-opacity:1"
       d="M 27.947072,102.03349 H 166.51114 a 5.0000006,5.0000006 120 0 0 4.33012,-7.5 l -7.21687,-12.499996 h -40.41452 l -12.99038,-22.5 -12.990386,22.5 -12.990381,-22.5 -12.990381,22.5 H 30.833821 L 23.616945,94.53349 a 5,5 60 0 0 4.330127,7.5 z"
       id="path6"
       inkscape:label="ground bg"
       inkscape:path-effect="#path-effect21"
       inkscape:original-d="M 19.286818,102.03349 H 175.17139 l -11.547,-19.999996 h -40.41452 l -12.99038,-22.5 -12.990386,22.5 -12.990381,-22.5 -12.990381,22.5 H 30.833821 Z"
       transform="translate(6.3878407,28.750004)" />
    <path
       id="path1"
       style="display:inline;opacity:1;fill:#241734;fill-opacity:1;stroke:none;stroke-width:1;stroke-linecap:round;stroke-linejoin:round;stroke-dasharray:none;stroke-opacity:1"
       inkscape:label="negative m"
       d="M 103.61607,27.033498 60.315284,102.0335 H 77.635596 L 90.625831,79.533498 103.61607,102.0335 116.60825,79.533498 129.59849,102.0335 h 17.32031 z m 0,15 10.82666,18.74973 a 7.4997612,7.4997612 90 0 1 0,7.50054 l -10.82666,18.74973 -10.824962,-18.74959 a 7.5008819,7.5008819 90 0 1 0,-7.50082 z"
       inkscape:path-effect="#path-effect39"
       inkscape:original-d="M 103.61607,27.033498 60.315284,102.0335 H 77.635596 L 90.625831,79.533498 103.61607,102.0335 116.60825,79.533498 129.59849,102.0335 h 17.32031 z m 0,15 12.99218,22.5 -12.99218,22.5 -12.990239,-22.5 z"
       transform="translate(0,8.75)" />
  </g>
  <g
     inkscape:groupmode="layer"
     id="layer3"
     inkscape:label="mbin text"
     style="display:none;fill:none"
     transform="matrix(0.93295877,0,0,0.93295877,317.72848,719.83517)">
    <path
       id="path3"
       style="display:inline;fill:#ffffff;fill-opacity:1;stroke:none;stroke-width:1;stroke-linecap:round;stroke-linejoin:round;stroke-dasharray:none;stroke-opacity:1"
       inkscape:label="m"
       d="m 139.56809,37.69155 h -22.0027 l -25.980468,45 -25.980468,-45 H 43.604063 v 95 h 22.000391 v -55 l 25.980468,45 25.982418,-45 -0.002,55 h 22.0027 z"
       sodipodi:nodetypes="ccccccccccccc" />
    <path
       id="ellipse14"
       style="fill:#ffffff;fill-opacity:1;stroke:none;stroke-width:1;stroke-linecap:round;stroke-linejoin:round;stroke-dasharray:none;stroke-opacity:0.5"
       d="m 159.56406,37.69155 v 95 h 47.5 c 16.56853,0 30,-13.43148 30,-30 0,-10.859773 -3.70774,-19.291794 -12.3722,-23.817265 2.12276,-3.965177 3.87241,-7.357346 3.87241,-12.432956 0,-15.878173 -13.12204,-28.749779 -29.00021,-28.749779 z m 20,20 h 20 c 5.52284,0 9,3.226938 9,8.749779 0,5.522841 -3.47716,8.750221 -9,8.750221 h -20 z m 0,35 h 27.5 c 5.52284,0 10,4.477159 10,10 0,5.52284 -4.47715,10.005 -10,10.005 h -27.5 z"
       inkscape:label="b"
       sodipodi:nodetypes="ccsscssccssscccssscc" />
    <path
       style="fill:#ffffff;fill-opacity:1;stroke:none;stroke-width:1;stroke-linecap:round;stroke-linejoin:round;stroke-dasharray:none;stroke-opacity:1"
       d="m 274.10406,132.69155 v -95 h -22 v 95 z"
       id="path20"
       sodipodi:nodetypes="ccccc"
       inkscape:label="i" />
    <path
       style="display:inline;fill:#ffffff;fill-opacity:1;stroke:none;stroke-width:1;stroke-linecap:round;stroke-linejoin:round;stroke-dasharray:none;stroke-opacity:1"
       d="m 372.87906,132.6913 -22,2.5e-4 v -29.99996 l -34.775,-35 v 64.99996 h -22 v -95 h 22 l 34.775,35.05849 V 37.69155 h 22 z"
       id="path3-4"
       sodipodi:nodetypes="cccccccccccc"
       inkscape:label="n" />
  </g>
</svg>
