<svg width="1100" height="320" viewBox="0 0 1100 320" xmlns="http://www.w3.org/2000/svg">
    <defs>
        <linearGradient id="linearGradient9" x1="105.88936" y1="-7.966506" x2="153.52075" y2="74.53349" gradientUnits="userSpaceOnUse">
            <stop offset="0" stop-color="#2de2e6"/>
            <stop offset="1" stop-color="#3399ff"/>
        </linearGradient>
        <linearGradient id="linearGradient7" x1="97.2291" y1="82.03349" x2="97.2291" y2="107.03349" gradientUnits="userSpaceOnUse">
            <stop offset="0" stop-color="#f623ac"/>
            <stop offset="1" stop-color="#f706cf"/>
        </linearGradient>
    </defs>
    <g id="g1" transform="matrix(1 0 0 1 31.439997 29.999998)">
        <g id="layer1" transform="matrix(2 0 0 2 -58.669823 15.933004)">
            <g transform="matrix(1 0 0 1 6.3878407 20.000004)">
                <path id="path5" fill="url(#linearGradient9)" stroke="none" d="M 92.89898 -25.466507 L 23.616945 94.533485 C 22.723782 96.0805 22.723782 97.98649 23.616945 99.53349 C 24.510109 101.0805 26.160746 102.03349 27.947071 102.03349 L 166.51114 102.03349 C 168.29747 102.03349 169.9481 101.0805 170.84126 99.533485 C 171.73442 97.98648 171.73442 96.0805 170.84126 94.533485 L 101.55923 -25.466507 C 100.66607 -27.013512 99.015434 -27.966505 97.22911 -27.966505 C 95.44278 -27.966505 93.792145 -27.013512 92.89898 -25.466507 Z"/>
            </g>
            <path id="path1" fill="#241734" stroke="none" d="M 103.61607 27.033497 L 60.315285 102.0335 L 77.6356 102.0335 L 90.62583 79.5335 L 103.61607 102.0335 L 116.60825 79.5335 L 129.5985 102.0335 L 146.9188 102.0335 Z M 103.61607 42.033497 L 114.44273 60.783234 C 115.78273 63.103855 115.78273 65.963135 114.44273 68.28377 L 103.61607 87.0335 L 92.791115 68.283905 C 91.451225 65.96314 91.451225 63.10385 92.791115 60.78309 Z"/>
            <g transform="matrix(1 0 0 1 6.3878407 20.000004)">
                <path id="path6" fill="url(#linearGradient7)" stroke="none" d="M 27.947071 102.03349 L 166.51114 102.03349 C 168.29747 102.03349 169.9481 101.0805 170.84126 99.533485 C 171.73442 97.98648 171.73442 96.0805 170.84126 94.533485 L 163.62439 82.03349 L 123.20987 82.03349 L 110.21949 59.533493 L 97.22911 82.03349 L 84.23872 59.533493 L 71.248344 82.03349 L 30.83382 82.03349 L 23.616945 94.533485 C 22.723782 96.0805 22.723782 97.98649 23.616945 99.53349 C 24.510109 101.0805 26.160746 102.03349 27.947071 102.03349 Z"/>
            </g>
        </g>
        <g id="layer3" transform="matrix(2 0 0 2 178.15544 -28.311455)">
            <path id="text2" fill="#ffffff" stroke="none" d="M 117.89139 101.47573 Q 115.86639 101.47573 114.65139 100.39572 Q 113.57139 99.180725 112.89639 98.10074 L 100.20639 75.82573 L 100.20639 120.51073 Q 100.20639 121.99573 99.12638 123.07573 Q 98.04638 124.15573 96.561386 124.15573 L 78.87639 124.15573 Q 77.39139 124.15573 76.311386 123.07573 Q 75.231384 121.99573 75.231384 120.51073 L 75.231384 33.30073 Q 75.231384 31.815731 76.311386 30.735731 Q 77.39139 29.655731 78.87639 29.655731 L 94.536385 29.655731 Q 97.23639 29.655731 98.58639 31.140732 Q 99.936386 32.625732 100.34139 33.30073 L 122.21139 70.69573 L 144.08139 33.30073 Q 144.48639 32.625732 145.8364 31.140732 Q 147.18639 29.655731 149.88638 29.655731 L 165.54639 29.655731 Q 167.03139 29.655731 168.11139 30.735731 Q 169.19139 31.815731 169.19139 33.30073 L 169.19139 120.51073 Q 169.19139 121.99573 168.11139 123.07573 Q 167.03139 124.15573 165.54639 124.15573 L 147.86139 124.15573 Q 146.37639 124.15573 145.29639 123.07573 Q 144.21638 121.99573 144.21638 120.51073 L 144.21638 75.82573 L 131.52638 98.10074 Q 130.8514 99.180725 129.63638 100.39572 Q 128.5564 101.47573 126.53139 101.47573 Z M 199.16502 124.15573 Q 197.68002 124.15573 196.6 123.07573 Q 195.52002 121.99573 195.52002 120.51073 L 195.52002 33.30073 Q 195.52002 31.815731 196.6 30.735731 Q 197.68002 29.655731 199.16502 29.655731 L 242.63503 29.655731 Q 251.68002 29.655731 257.89 32.22073 Q 264.1 34.65073 267.74503 38.70073 Q 271.52502 42.61573 273.14502 47.74573 Q 274.765 52.74073 274.765 57.735733 Q 274.765 61.65073 273.82 64.62073 Q 273.01 67.455734 271.795 69.61573 Q 270.58002 71.64073 269.23 72.99073 Q 268.015 74.205734 267.20502 74.88073 Q 272.47003 78.525734 274.49503 83.385735 Q 276.65503 88.11073 276.65503 94.860725 Q 276.65503 100.39572 275.03503 105.660736 Q 273.415 110.925735 269.635 115.11074 Q 265.99002 119.16073 260.05002 121.72572 Q 254.11003 124.15573 245.47002 124.15573 Z M 249.65501 58.275734 Q 249.65501 54.76573 247.49503 52.74073 Q 245.47002 50.58073 241.42003 50.58073 L 220.49503 50.58073 L 220.49503 65.97073 L 241.42003 65.97073 Q 245.47002 65.97073 247.49503 63.945732 Q 249.65501 61.785732 249.65501 58.275734 Z M 220.49503 103.23073 L 242.77002 103.23073 Q 246.82002 103.23073 249.25002 100.93573 Q 251.68002 98.50573 251.68002 94.995735 Q 251.68002 91.48574 249.25002 89.19073 Q 246.82002 86.760735 242.77002 86.760735 L 220.49503 86.760735 Z M 302.7136 124.15573 Q 301.22858 124.15573 300.1486 123.07573 Q 299.06857 121.99573 299.06857 120.51073 L 299.06857 33.30073 Q 299.06857 31.815731 300.1486 30.735731 Q 301.22858 29.655731 302.7136 29.655731 L 320.3986 29.655731 Q 321.88358 29.655731 322.9636 30.735731 Q 324.04358 31.815731 324.04358 33.30073 L 324.04358 120.51073 Q 324.04358 121.99573 322.9636 123.07573 Q 321.88358 124.15573 320.3986 124.15573 Z M 411.79727 124.15573 Q 409.50226 124.15573 408.01727 122.94072 Q 406.66727 121.72572 406.26224 121.05073 L 375.34723 74.88073 L 375.34723 120.51073 Q 375.34723 121.99573 374.2673 123.07573 Q 373.18726 124.15573 371.70224 124.15573 L 354.01727 124.15573 Q 352.5323 124.15573 351.45227 123.07573 Q 350.37225 121.99573 350.37225 120.51073 L 350.37225 33.30073 Q 350.37225 31.815731 351.45227 30.735731 Q 352.5323 29.655731 354.01727 29.655731 L 368.05725 29.655731 Q 370.35226 29.655731 371.70224 30.87073 Q 373.18726 32.08573 373.59225 32.76073 L 404.5073 78.93073 L 404.5073 33.30073 Q 404.5073 31.815731 405.58722 30.735731 Q 406.66727 29.655731 408.15228 29.655731 L 425.83725 29.655731 Q 427.3223 29.655731 428.40225 30.735731 Q 429.48227 31.815731 429.48227 33.30073 L 429.48227 120.51073 Q 429.48227 121.99573 428.40225 123.07573 Q 427.3223 124.15573 425.83725 124.15573 Z"/>
        </g>
    </g>
</svg>
