<?xml version="1.0" encoding="UTF-8" standalone="no"?>
<!-- Created with Inkscape (http://www.inkscape.org/) -->

<svg
   width="200"
   height="200"
   viewBox="0 0 200 200"
   version="1.1"
   id="svg1"
   xmlns:xlink="http://www.w3.org/1999/xlink"
   xmlns="http://www.w3.org/2000/svg"
   xmlns:svg="http://www.w3.org/2000/svg">
  <defs
     id="defs1">
    <linearGradient
       id="linearGradient32">
      <stop
         style="stop-color:#8c1eff;stop-opacity:1;"
         offset="0"
         id="stop32" />
      <stop
         style="stop-color:#f233ff;stop-opacity:1;"
         offset="0.50000423"
         id="stop35" />
      <stop
         style="stop-color:#ffffff;stop-opacity:1;"
         offset="1"
         id="stop34" />
    </linearGradient>
    <linearGradient
       id="linearGradient8">
      <stop
         style="stop-color:#2de2e6;stop-opacity:1;"
         offset="0"
         id="stop8" />
      <stop
         style="stop-color:#3399ff;stop-opacity:1;"
         offset="1"
         id="stop11" />
    </linearGradient>
    <linearGradient
       id="linearGradient6">
      <stop
         style="stop-color:#f623ac;stop-opacity:1;"
         offset="0"
         id="stop6" />
      <stop
         style="stop-color:#f706cf;stop-opacity:1;"
         offset="1"
         id="stop7" />
    </linearGradient>
    <linearGradient
       xlink:href="#linearGradient6"
       id="linearGradient7"
       x1="97.229103"
       y1="82.033493"
       x2="97.229103"
       y2="107.03349"
       gradientUnits="userSpaceOnUse" />
    <linearGradient
       xlink:href="#linearGradient8"
       id="linearGradient9"
       x1="105.88936"
       y1="-7.966506"
       x2="153.52075"
       y2="74.533493"
       gradientUnits="userSpaceOnUse" />
    <linearGradient
       xlink:href="#linearGradient32"
       id="linearGradient34"
       x1="103.61607"
       y1="87.283501"
       x2="103.61694"
       y2="27.283499"
       gradientUnits="userSpaceOnUse" />
  </defs>
  <rect
     style="display:inline;opacity:1;fill:#28134a;fill-opacity:1;stroke:none;stroke-width:5.80284;stroke-linecap:round;stroke-linejoin:round;stroke-dasharray:none;stroke-opacity:1"
     id="rect35"
     width="200"
     height="200"
     x="0"
     y="0" />
  <g
     id="layer1"
     style="display:inline;fill:none"
     transform="translate(-3.674659,42.966502)">
    <path
       id="path27"
       style="color:#000000;fill:url(#linearGradient34);fill-opacity:1;stroke:none;stroke-width:1.5;stroke-linecap:round;stroke-linejoin:round;stroke-dasharray:none;-inkscape-stroke:none"
       d="m 44.909034,41.445608 c -1.645004,0 -3,1.354997 -3,3 v 6.175782 c 0,1.645004 1.354996,3 3,3 h 17.521484 l 1.154297,-2 H 44.909034 c -0.564127,0 -1,-0.435873 -1,-1 v -6.175782 c 0,-0.564126 0.435873,-1 1,-1 h 23.396484 l 1.154297,-2 z m 92.865236,0 1.1543,2 H 162.327 c 0.56413,0 1,0.435874 1,1 v 6.175782 c 0,0.564127 -0.43587,1 -1,1 h -18.67773 l 1.1543,2 H 162.327 c 1.64501,0 3,-1.354996 3,-3 v -6.175782 c 0,-1.645003 -1.35499,-3 -3,-3 z m -92.865236,19.75 c -1.509894,0 -2.75,1.240106 -2.75,2.75 v 6.175782 c 0,1.509894 1.240106,2.75 2.75,2.75 h 6.40625 l 0.865234,-1.5 h -7.271484 c -0.699237,0 -1.25,-0.550764 -1.25,-1.25 v -6.175782 c 0,-0.699236 0.550763,-1.249999 1.25,-1.25 h 12.28125 l 0.867187,-1.5 z m 104.267576,0 0.86524,1.5 H 162.327 c 0.69924,0 1.25,0.550764 1.25,1.25 v 6.175782 c 0,0.699236 -0.55076,1.25 -1.25,1.25 h -7.27539 l 0.86524,1.5 h 6.41015 c 1.5099,0 2.75,-1.240106 2.75,-2.75 v -6.175782 c 0,-1.509894 -1.2401,-2.749999 -2.75,-2.75 z"
       transform="translate(0,-0.250001)" />
    <path
       style="display:inline;opacity:1;fill:url(#linearGradient9);fill-opacity:1;stroke:none;stroke-width:1;stroke-linecap:round;stroke-linejoin:round;stroke-dasharray:none;stroke-opacity:1"
       d="M 92.898977,-25.466506 23.616945,94.53349 a 4.9999999,4.9999999 60 0 0 4.330127,7.5 H 166.51114 a 4.9999996,4.9999996 120 0 0 4.33012,-7.499999 L 101.55923,-25.466506 a 5.0000002,5.0000002 180 0 0 -8.660253,0 z"
       id="path5"
       transform="translate(6.3878407,20.000004)" />
    <path
       style="display:inline;opacity:1;fill:url(#linearGradient7);fill-opacity:1;stroke:none;stroke-width:1;stroke-linecap:round;stroke-linejoin:round;stroke-dasharray:none;stroke-opacity:1"
       d="M 27.947072,102.03349 H 166.51114 a 5.0000006,5.0000006 120 0 0 4.33012,-7.5 l -7.21687,-12.499996 h -40.41452 l -12.99038,-22.5 -12.990386,22.5 -12.990381,-22.5 -12.990381,22.5 H 30.833821 L 23.616945,94.53349 a 5,5 60 0 0 4.330127,7.5 z"
       id="path6"
       transform="translate(6.3878407,20.000004)" />
    <path
       id="path1"
       style="display:inline;opacity:1;fill:#241734;fill-opacity:1;stroke:none;stroke-width:1;stroke-linecap:round;stroke-linejoin:round;stroke-dasharray:none;stroke-opacity:1"
       d="M 103.61607,27.033498 60.315284,102.0335 H 77.635596 L 90.625831,79.533498 103.61607,102.0335 116.60825,79.533498 129.59849,102.0335 h 17.32031 z m 0,15 10.82666,18.74973 a 7.4997612,7.4997612 90 0 1 0,7.50054 l -10.82666,18.74973 -10.824962,-18.74959 a 7.5008819,7.5008819 90 0 1 0,-7.50082 z" />
  </g>
</svg>
